Rokkitt-Light-italic.ufo
<glyph name="exclam" format="1">
  <advance width="444"/>
  <unicode hex="0021"/>
  <outline>
    <contour>
      <point x="171" y="358" type="line"/>
      <point x="138" y="358" type="line"/>
      <point x="210" y="841" type="line"/>
      <point x="290" y="1218" type="line"/>
      <point x="383" y="1218" type="line"/>
      <point x="302" y="841" type="line"/>
    </contour>
    <contour>
      <point x="25" y="0" type="line"/>
      <point x="47" y="110" type="line"/>
      <point x="157" y="110" type="line"/>
      <point x="138" y="0" type="line"/>
    </contour>
  </outline>
</glyph>
<glyph name="parenright" format="1">
  <advance width="551"/>
  <unicode hex="0029"/>
  <outline>
    <contour>
      <point x="183" y="1319" type="line"/>
      <point x="388" y="1265"/>
      <point x="477" y="1072"/>
      <point x="477" y="844" type="curve" smooth="yes"/>
      <point x="477" y="424"/>
      <point x="232" y="42"/>
      <point x="-106" y="-39" type="curve"/>
      <point x="-92" y="33" type="line"/>
      <point x="234" y="141"/>
      <point x="390" y="542"/>
      <point x="390" y="848" type="curve" smooth="yes"/>
      <point x="390" y="1028"/>
      <point x="328" y="1185"/>
      <point x="167" y="1248" type="curve"/>
    </contour>
  </outline>
</glyph>
<glyph name="seven" format="1">
  <advance width="901"/>
  <unicode hex="0037"/>
  <outline>
    <contour>
      <point x="915" y="1211" type="curve"/>
      <point x="262" y="1211" type="line"/>
      <point x="207" y="953" type="line"/>
      <point x="128" y="953" type="line"/>
      <point x="198" y="1284" type="line"/>
      <point x="1022" y="1284" type="line"/>
      <point x="1005" y="1205" type="line"/>
      <point x="574" y="824"/>
      <point x="415" y="486"/>
      <point x="323" y="54" type="curve"/>
      <point x="512" y="54" type="line"/>
      <point x="498" y="-11" type="line"/>
      <point x="53" y="-11" type="line"/>
      <point x="67" y="54" type="line"/>
      <point x="239" y="54" type="line"/>
      <point x="306" y="376"/>
      <point x="453" y="792"/>
    </contour>
  </outline>
</glyph>
<glyph name="equal" format="1">
  <advance width="854"/>
  <unicode hex="003D"/>
  <outline>
    <contour>
      <point x="718" y="724" type="line"/>
      <point x="705" y="660" type="line"/>
      <point x="174" y="660" type="line"/>
      <point x="189" y="724" type="line"/>
    </contour>
    <contour>
      <point x="658" y="436" type="line"/>
      <point x="643" y="370" type="line"/>
      <point x="113" y="370" type="line"/>
      <point x="129" y="436" type="line"/>
    </contour>
  </outline>
</glyph>
<glyph name="A" format="1">
  <advance width="1403.0"/>
  <unicode hex="0041"/>
  <outline>
    <contour>
      <point x="0.0" y="0" type="line"/>
      <point x="380.0" y="0" type="line"/>
      <point x="395.0" y="62" type="line"/>
      <point x="241.0" y="62" type="line"/>
      <point x="461.0" y="451" type="line"/>
      <point x="1012.0" y="451" type="line"/>
      <point x="1079.0" y="62" type="line"/>
      <point x="930.0" y="62" type="line"/>
      <point x="917.0" y="0" type="line"/>
      <point x="1297.0" y="0" type="line"/>
      <point x="1312.0" y="62" type="line"/>
      <point x="1165.0" y="62" type="line"/>
      <point x="958.0" y="1311" type="line"/>
      <point x="854.0" y="1311" type="line"/>
      <point x="156.0" y="62" type="line"/>
      <point x="13.0" y="62" type="line"/>
    </contour>
    <contour>
      <point x="495.0" y="512" type="line"/>
      <point x="886" y="1230" type="line"/>
      <point x="1002.0" y="512" type="line"/>
    </contour>
  </outline>
</glyph>
<glyph name="B" format="1">
  <advance width="1135.49504825"/>
  <unicode hex="0042"/>
  <outline>
    <contour>
      <point x="732.495048245" y="1311" type="line" smooth="yes"/>
      <point x="982.495048245" y="1311"/>
      <point x="1094.49504825" y="1185"/>
      <point x="1094.49504825" y="1045" type="curve" smooth="yes"/>
      <point x="1094.49504825" y="879"/>
      <point x="955.495048245" y="743"/>
      <point x="788.495048245" y="697" type="curve"/>
      <point x="985.495048245" y="661"/>
      <point x="1052.49504825" y="514"/>
      <point x="1052.49504825" y="398" type="curve" smooth="yes"/>
      <point x="1052.49504825" y="208"/>
      <point x="881.495048245" y="0"/>
      <point x="562.495048245" y="0" type="curve" smooth="yes"/>
      <point x="-1.50495175497" y="0" type="line"/>
      <point x="10.495048245" y="62" type="line"/>
      <point x="181.495048245" y="62" type="line"/>
      <point x="433.495048245" y="1248" type="line"/>
      <point x="236.495048245" y="1248" type="line"/>
      <point x="249.495048245" y="1311" type="line"/>
    </contour>
    <contour>
      <point x="271.495048245" y="62" type="line"/>
      <point x="578.495048245" y="62" type="line" smooth="yes"/>
      <point x="820.495048245" y="62"/>
      <point x="964.495048245" y="234"/>
      <point x="964.495048245" y="389" type="curve" smooth="yes"/>
      <point x="964.495048245" y="513"/>
      <point x="884.495048245" y="653"/>
      <point x="692.495048245" y="653" type="curve" smooth="yes"/>
      <point x="398.495048245" y="653" type="line"/>
    </contour>
    <contour>
      <point x="411.495048245" y="715" type="line"/>
      <point x="636.495048245" y="715" type="line" smooth="yes"/>
      <point x="850.495048245" y="715"/>
      <point x="1010.49504825" y="896"/>
      <point x="1010.49504825" y="1048" type="curve" smooth="yes"/>
      <point x="1010.49504825" y="1156"/>
      <point x="926.495048245" y="1248"/>
      <point x="731.495048245" y="1248" type="curve" smooth="yes"/>
      <point x="524.495048245" y="1248" type="line"/>
    </contour>
  </outline>
</glyph>
<glyph name="C" format="1">
  <advance width="1449.49381261"/>
  <unicode hex="0043"/>
  <outline>
    <contour>
      <point x="1340.88759385" y="1006" type="line"/>
      <point x="1286.88759385" y="991" type="line"/>
      <point x="1254.88759385" y="1166"/>
      <point x="1129.88759385" y="1265"/>
      <point x="953.887593853" y="1265" type="curve" smooth="yes"/>
      <point x="577.887593853" y="1265"/>
      <point x="377.887593853" y="899"/>
      <point x="377.887593853" y="562" type="curve" smooth="yes"/>
      <point x="377.887593853" y="276"/>
      <point x="528.887593853" y="48"/>
      <point x="839.887593853" y="48" type="curve" smooth="yes"/>
      <point x="1008.88759385" y="48"/>
      <point x="1166.88759385" y="150"/>
      <point x="1246.88759385" y="292" type="curve"/>
      <point x="1313.88759385" y="253" type="line"/>
      <point x="1206.88759385" y="75"/>
      <point x="1031.88759385" y="-20"/>
      <point x="820.887593853" y="-20" type="curve" smooth="yes"/>
      <point x="472.887593853" y="-20"/>
      <point x="290.887593853" y="252"/>
      <point x="290.887593853" y="571" type="curve" smooth="yes"/>
      <point x="290.887593853" y="952"/>
      <point x="541.887593853" y="1332"/>
      <point x="951.887593853" y="1332" type="curve" smooth="yes"/>
      <point x="1083.88759385" y="1332"/>
      <point x="1222.88759385" y="1276"/>
      <point x="1290.88759385" y="1158" type="curve"/>
      <point x="1312.88759385" y="1311" type="line"/>
      <point x="1382.88759385" y="1311" type="line"/>
    </contour>
  </outline>
</glyph>
<glyph name="D" format="1">
  <advance width="1273.70872514"/>
  <unicode hex="0044"/>
  <outline>
    <contour>
      <point x="609.495048245" y="0" type="curve" smooth="yes"/>
      <point x="-0.504951754972" y="0" type="line"/>
      <point x="10.495048245" y="62" type="line"/>
      <point x="188.495048245" y="62" type="line"/>
      <point x="433.495048245" y="1248" type="line"/>
      <point x="239.495048245" y="1248" type="line"/>
      <point x="249.495048245" y="1311" type="line"/>
      <point x="743.495048245" y="1311" type="line" smooth="yes"/>
      <point x="1067.49504825" y="1311"/>
      <point x="1262.49504825" y="1060"/>
      <point x="1262.49504825" y="764" type="curve" smooth="yes"/>
      <point x="1262.49504825" y="370"/>
      <point x="1023.49504825" y="0"/>
    </contour>
    <contour>
      <point x="271.495048245" y="62" type="line"/>
      <point x="608.495048245" y="62" type="line" smooth="yes"/>
      <point x="996.495048245" y="62"/>
      <point x="1178.49504825" y="448"/>
      <point x="1178.49504825" y="762" type="curve" smooth="yes"/>
      <point x="1178.49504825" y="1004"/>
      <point x="1059.49504825" y="1248"/>
      <point x="744.495048245" y="1248" type="curve" smooth="yes"/>
      <point x="519.495048245" y="1248" type="line"/>
    </contour>
  </outline>
</glyph>
<glyph name="E" format="1">
  <advance width="1071.49504825"/>
  <unicode hex="0045"/>
  <outline>
    <contour>
      <point x="930.495048245" y="0" type="line"/>
      <point x="991.495048245" y="314" type="line"/>
      <point x="907.495048245" y="314" type="line"/>
      <point x="858.495048245" y="62" type="line"/>
      <point x="290.495048245" y="62" type="line"/>
      <point x="413.495048245" y="646" type="line"/>
      <point x="852.495048245" y="646" type="line"/>
      <point x="821.495048245" y="486" type="line"/>
      <point x="906.495048245" y="486" type="line"/>
      <point x="977.495048245" y="840" type="line"/>
      <point x="892.495048245" y="840" type="line"/>
      <point x="865.495048245" y="708" type="line"/>
      <point x="426.495048245" y="708" type="line"/>
      <point x="539.495048245" y="1248" type="line"/>
      <point x="1048.49504825" y="1248" type="line"/>
      <point x="1003.49504825" y="1039" type="line"/>
      <point x="1090.49504825" y="1039" type="line"/>
      <point x="1146.49504825" y="1311" type="line"/>
      <point x="269.495048245" y="1311" type="line"/>
      <point x="258.495048245" y="1248" type="line"/>
      <point x="452.495048245" y="1248" type="line"/>
      <point x="207.495048245" y="62" type="line"/>
      <point x="29.495048245" y="62" type="line"/>
      <point x="18.495048245" y="0" type="line"/>
    </contour>
  </outline>
</glyph>
<glyph name="F" format="1">
  <advance width="983.0"/>
  <unicode hex="0046"/>
  <outline>
    <contour>
      <point x="-0.504951754972" y="0" type="line"/>
      <point x="440.495048245" y="0" type="line"/>
      <point x="452.495048245" y="62" type="line"/>
      <point x="270.495048245" y="62" type="line"/>
      <point x="396.495048245" y="659" type="line"/>
      <point x="821.495048245" y="659" type="line"/>
      <point x="790.495048245" y="505" type="line"/>
      <point x="875.495048245" y="505" type="line"/>
      <point x="946.495048245" y="859" type="line"/>
      <point x="861.495048245" y="859" type="line"/>
      <point x="834.495048245" y="720" type="line"/>
      <point x="408.495048245" y="720" type="line"/>
      <point x="519.495048245" y="1248" type="line"/>
      <point x="1028.49504825" y="1248" type="line"/>
      <point x="985.495048245" y="1039" type="line"/>
      <point x="1069.49504825" y="1039" type="line"/>
      <point x="1127.49504825" y="1311" type="line"/>
      <point x="249.495048245" y="1311" type="line"/>
      <point x="239.495048245" y="1248" type="line"/>
      <point x="433.495048245" y="1248" type="line"/>
      <point x="186.495048245" y="62" type="line"/>
      <point x="10.495048245" y="62" type="line"/>
    </contour>
  </outline>
</glyph>
<glyph name="G" format="1">
  <advance width="1470.34012439"/>
  <unicode hex="0047"/>
  <outline>
    <contour>
      <point x="1360.88759385" y="1007" type="line"/>
      <point x="1305.88759385" y="988" type="line"/>
      <point x="1271.88759385" y="1165"/>
      <point x="1139.88759385" y="1265"/>
      <point x="953.887593853" y="1265" type="curve" smooth="yes"/>
      <point x="577.887593853" y="1265"/>
      <point x="377.887593853" y="899"/>
      <point x="377.887593853" y="562" type="curve" smooth="yes"/>
      <point x="377.887593853" y="276"/>
      <point x="528.887593853" y="48"/>
      <point x="839.887593853" y="48" type="curve" smooth="yes"/>
      <point x="1013.88759385" y="48"/>
      <point x="1252.88759385" y="146"/>
      <point x="1295.88759385" y="543" type="curve"/>
      <point x="983.887593853" y="543" type="line"/>
      <point x="983.887593853" y="605" type="line"/>
      <point x="1380.88759385" y="605" type="line"/>
      <point x="1373.88759385" y="543" type="line"/>
      <point x="1307.88759385" y="66"/>
      <point x="1038.88759385" y="-20"/>
      <point x="820.887593853" y="-20" type="curve" smooth="yes"/>
      <point x="472.887593853" y="-20"/>
      <point x="290.887593853" y="252"/>
      <point x="290.887593853" y="571" type="curve" smooth="yes"/>
      <point x="290.887593853" y="952"/>
      <point x="541.887593853" y="1332"/>
      <point x="951.887593853" y="1332" type="curve" smooth="yes"/>
      <point x="1091.88759385" y="1332"/>
      <point x="1237.88759385" y="1276"/>
      <point x="1309.88759385" y="1158" type="curve"/>
      <point x="1332.88759385" y="1311" type="line"/>
      <point x="1402.88759385" y="1311" type="line"/>
    </contour>
  </outline>
</glyph>
<glyph name="H" format="1">
  <advance width="1571.49504825"/>
  <unicode hex="0048"/>
  <outline>
    <contour>
      <point x="1209.49504825" y="1248" type="line"/>
      <point x="1221.49504825" y="1311" type="line"/>
      <point x="1691.49504825" y="1311" type="line"/>
      <point x="1679.49504825" y="1248" type="line"/>
      <point x="1490.49504825" y="1248" type="line"/>
      <point x="1244.49504825" y="62" type="line"/>
      <point x="1454.49504825" y="62" type="line"/>
      <point x="1442.49504825" y="0" type="line"/>
      <point x="972.495048245" y="0" type="line"/>
      <point x="982.495048245" y="62" type="line"/>
      <point x="1159.49504825" y="62" type="line"/>
      <point x="1272.49504825" y="636" type="line"/>
      <point x="392.495048245" y="636" type="line"/>
      <point x="271.495048245" y="62" type="line"/>
      <point x="482.495048245" y="62" type="line"/>
      <point x="470.495048245" y="0" type="line"/>
      <point x="0.495048245028" y="0" type="line"/>
      <point x="11.495048245" y="62" type="line"/>
      <point x="188.495048245" y="62" type="line"/>
      <point x="433.495048245" y="1248" type="line"/>
      <point x="238.495048245" y="1248" type="line"/>
      <point x="249.495048245" y="1311" type="line"/>
      <point x="719.495048245" y="1311" type="line"/>
      <point x="709.495048245" y="1248" type="line"/>
      <point x="519.495048245" y="1248" type="line"/>
      <point x="405.495048245" y="699" type="line"/>
      <point x="1284.49504825" y="699" type="line"/>
      <point x="1391.49504825" y="1248" type="line"/>
    </contour>
  </outline>
</glyph>
<glyph name="I" format="1">
  <advance width="611.495048245"/>
  <unicode hex="0049"/>
  <outline>
    <contour>
      <point x="249.495048245" y="1248" type="line"/>
      <point x="259.495048245" y="1311" type="line"/>
      <point x="730.495048245" y="1311" type="line"/>
      <point x="719.495048245" y="1248" type="line"/>
      <point x="529.495048245" y="1248" type="line"/>
      <point x="281.495048245" y="62" type="line"/>
      <point x="490.495048245" y="62" type="line"/>
      <point x="479.495048245" y="0" type="line"/>
      <point x="9.49504824503" y="0" type="line"/>
      <point x="20.495048245" y="62" type="line"/>
      <point x="198.495048245" y="62" type="line"/>
      <point x="443.495048245" y="1248" type="line"/>
    </contour>
  </outline>
</glyph>
<glyph name="J" format="1">
  <advance width="592.09512809"/>
  <unicode hex="004A"/>
  <outline>
    <contour>
      <point x="240.09512809" y="103" type="curve" smooth="yes"/>
      <point x="482.09512809" y="1248" type="line"/>
      <point x="338.09512809" y="1248" type="line"/>
      <point x="352.09512809" y="1311" type="line"/>
      <point x="726.09512809" y="1311" type="line"/>
      <point x="713.09512809" y="1248" type="line"/>
      <point x="568.09512809" y="1248" type="line"/>
      <point x="325.09512809" y="104" type="line" smooth="yes"/>
      <point x="289.09512809" y="-66"/>
      <point x="194.09512809" y="-106"/>
      <point x="62.0951280896" y="-105" type="curve" smooth="yes"/>
      <point x="-48.9048719104" y="-104" type="line"/>
      <point x="-40.9048719104" y="-43" type="line"/>
      <point x="75.0951280896" y="-43" type="line" smooth="yes"/>
      <point x="174.09512809" y="-43"/>
      <point x="217.09512809" y="-3"/>
    </contour>
  </outline>
</glyph>
<glyph name="K" format="1">
  <advance width="1290.49504825"/>
  <unicode hex="004B"/>
  <outline>
    <contour>
      <point x="520.495048245" y="1248" type="line"/>
      <point x="398.495048245" y="666" type="line"/>
      <point x="1044.49504825" y="1248" type="line"/>
      <point x="913.495048245" y="1248" type="line"/>
      <point x="927.495048245" y="1311" type="line"/>
      <point x="1335.49504825" y="1311" type="line"/>
      <point x="1323.49504825" y="1248" type="line"/>
      <point x="1140.49504825" y="1248" type="line"/>
      <point x="483.495048245" y="650" type="line"/>
      <point x="1002.49504825" y="62" type="line"/>
      <point x="1213.49504825" y="62" type="line"/>
      <point x="1201.49504825" y="0" type="line"/>
      <point x="750.495048245" y="0" type="line"/>
      <point x="761.495048245" y="62" type="line"/>
      <point x="903.495048245" y="62" type="line"/>
      <point x="392.495048245" y="639" type="line"/>
      <point x="271.495048245" y="62" type="line"/>
      <point x="482.495048245" y="62" type="line"/>
      <point x="470.495048245" y="0" type="line"/>
      <point x="0.495048245028" y="0" type="line"/>
      <point x="11.495048245" y="62" type="line"/>
      <point x="188.495048245" y="62" type="line"/>
      <point x="433.495048245" y="1248" type="line"/>
      <point x="238.495048245" y="1248" type="line"/>
      <point x="249.495048245" y="1311" type="line"/>
      <point x="719.495048245" y="1311" type="line"/>
      <point x="709.495048245" y="1248" type="line"/>
    </contour>
  </outline>
</glyph>
<glyph name="L" format="1">
  <advance width="1104.52144765"/>
  <unicode hex="004C"/>
  <outline>
    <contour>
      <point x="950.495048245" y="334" type="line"/>
      <point x="1034.49504825" y="334" type="line"/>
      <point x="1012.49504825" y="222"/>
      <point x="990.495048245" y="110"/>
      <point x="967.495048245" y="0" type="curve"/>
      <point x="18.495048245" y="0" type="line"/>
      <point x="29.495048245" y="62" type="line"/>
      <point x="207.495048245" y="62" type="line"/>
      <point x="452.495048245" y="1248" type="line"/>
      <point x="258.495048245" y="1248" type="line"/>
      <point x="269.495048245" y="1311" type="line"/>
      <point x="739.495048245" y="1311" type="line"/>
      <point x="728.495048245" y="1248" type="line"/>
      <point x="538.495048245" y="1248" type="line"/>
      <point x="290.495048245" y="62" type="line"/>
      <point x="894.495048245" y="62" type="line"/>
    </contour>
  </outline>
</glyph>
<glyph name="M" format="1">
  <advance width="1835.0"/>
  <unicode hex="004D"/>
  <outline>
    <contour>
      <point x="1830.83958275" y="1312" type="line"/>
      <point x="1819.83958275" y="1249" type="line"/>
      <point x="1675.83958275" y="1249" type="line"/>
      <point x="1570.83958275" y="62" type="line"/>
      <point x="1746.83958275" y="62" type="line"/>
      <point x="1725.83958275" y="0" type="line"/>
      <point x="1296.83958275" y="0" type="line"/>
      <point x="1317.83958275" y="62" type="line"/>
      <point x="1486.83958275" y="62" type="line"/>
      <point x="1593.83958275" y="1184" type="line"/>
      <point x="896.839582755" y="0" type="line"/>
      <point x="849.839582755" y="0" type="line"/>
      <point x="706.839582755" y="1170" type="line"/>
      <point x="257.839582755" y="62" type="line"/>
      <point x="468.839582755" y="62" type="line"/>
      <point x="456.839582755" y="0" type="line"/>
      <point x="-13.1604172455" y="0" type="line"/>
      <point x="-1.16041724547" y="62" type="line"/>
      <point x="174.839582755" y="62" type="line"/>
      <point x="664.839582755" y="1249" type="line"/>
      <point x="469.839582755" y="1249" type="line"/>
      <point x="480.839582755" y="1312" type="line"/>
      <point x="766.839582755" y="1312" type="line"/>
      <point x="904.839582755" y="159" type="line"/>
      <point x="1583.83958275" y="1312" type="line"/>
    </contour>
  </outline>
</glyph>
<glyph name="N" format="1">
  <advance width="1469.70213829"/>
  <unicode hex="004E"/>
  <outline>
    <contour>
      <point x="1140.70213829" y="1249" type="line"/>
      <point x="1151.70213829" y="1312" type="line"/>
      <point x="1618.70213829" y="1312" type="line"/>
      <point x="1606.70213829" y="1249" type="line"/>
      <point x="1409.70213829" y="1249" type="line"/>
      <point x="1155.70213829" y="0" type="line"/>
      <point x="1075.70213829" y="0" type="line"/>
      <point x="521.702138289" y="1192" type="line"/>
      <point x="284.702138289" y="62" type="line"/>
      <point x="495.702138289" y="62" type="line"/>
      <point x="483.702138289" y="0" type="line"/>
      <point x="13.7021382895" y="0" type="line"/>
      <point x="24.7021382895" y="62" type="line"/>
      <point x="208.702138289" y="62" type="line"/>
      <point x="454.702138289" y="1249" type="line"/>
      <point x="251.702138289" y="1249" type="line"/>
      <point x="262.702138289" y="1312" type="line"/>
      <point x="548.702138289" y="1312" type="line"/>
      <point x="1100.70213829" y="126" type="line"/>
      <point x="1323.70213829" y="1249" type="line"/>
    </contour>
  </outline>
</glyph>
<glyph name="O" format="1">
  <advance width="1582.70395406"/>
  <unicode hex="004F"/>
  <outline>
    <contour>
      <point x="291.479249632" y="566" type="curve" smooth="yes"/>
      <point x="291.479249632" y="970"/>
      <point x="543.479249632" y="1332"/>
      <point x="950.479249632" y="1332" type="curve" smooth="yes"/>
      <point x="1274.47924963" y="1332"/>
      <point x="1473.47924963" y="1064"/>
      <point x="1473.47924963" y="735" type="curve" smooth="yes"/>
      <point x="1473.47924963" y="333"/>
      <point x="1241.47924963" y="-20"/>
      <point x="834.479249632" y="-20" type="curve" smooth="yes"/>
      <point x="476.479249632" y="-20"/>
      <point x="291.479249632" y="266"/>
    </contour>
    <contour>
      <point x="1389.47924963" y="733" type="curve" smooth="yes"/>
      <point x="1389.47924963" y="1004"/>
      <point x="1267.47924963" y="1263"/>
      <point x="952.479249632" y="1263" type="curve" smooth="yes"/>
      <point x="576.479249632" y="1263"/>
      <point x="378.479249632" y="905"/>
      <point x="378.479249632" y="564" type="curve" smooth="yes"/>
      <point x="378.479249632" y="331"/>
      <point x="505.479249632" y="48"/>
      <point x="832.479249632" y="48" type="curve" smooth="yes"/>
      <point x="1212.47924963" y="48"/>
      <point x="1389.47924963" y="410"/>
    </contour>
  </outline>
</glyph>
<glyph name="P" format="1">
  <advance width="1153.08884453"/>
  <unicode hex="0050"/>
  <outline>
    <contour>
      <point x="407.702138289" y="602" type="line"/>
      <point x="709.702138289" y="602" type="line" smooth="yes"/>
      <point x="957.702138289" y="602"/>
      <point x="1106.70213829" y="813"/>
      <point x="1106.70213829" y="991" type="curve" smooth="yes"/>
      <point x="1106.70213829" y="1129"/>
      <point x="1020.70213829" y="1249"/>
      <point x="825.702138289" y="1249" type="curve" smooth="yes"/>
      <point x="544.702138289" y="1249" type="line"/>
    </contour>
    <contour>
      <point x="692.702138289" y="539" type="curve" smooth="yes"/>
      <point x="393.702138289" y="539" type="line"/>
      <point x="291.702138289" y="62" type="line"/>
      <point x="503.702138289" y="62" type="line"/>
      <point x="490.702138289" y="0" type="line"/>
      <point x="18.7021382895" y="0" type="line"/>
      <point x="30.7021382895" y="62" type="line"/>
      <point x="201.702138289" y="62" type="line"/>
      <point x="453.702138289" y="1249" type="line"/>
      <point x="256.702138289" y="1249" type="line"/>
      <point x="269.702138289" y="1312" type="line"/>
      <point x="826.702138289" y="1312" type="line" smooth="yes"/>
      <point x="1082.70213829" y="1312"/>
      <point x="1194.70213829" y="1165"/>
      <point x="1194.70213829" y="998" type="curve" smooth="yes"/>
      <point x="1194.70213829" y="785"/>
      <point x="1006.70213829" y="539"/>
    </contour>
  </outline>
</glyph>
<glyph name="Q" format="1">
  <advance width="1582.70395406"/>
  <unicode hex="0051"/>
  <outline>
    <contour>
      <point x="1078.47924963" y="-210" type="curve" smooth="yes"/>
      <point x="1126.47924963" y="-210"/>
      <point x="1177.47924963" y="-201"/>
      <point x="1237.47924963" y="-183" type="curve"/>
      <point x="1228.47924963" y="-115" type="line"/>
      <point x="1174.47924963" y="-133"/>
      <point x="1128.47924963" y="-142"/>
      <point x="1084.47924963" y="-142" type="curve" smooth="yes"/>
      <point x="996.479249632" y="-142"/>
      <point x="919.479249632" y="-106"/>
      <point x="831.479249632" y="-20" type="curve"/>
      <point x="834.479249632" y="-20" type="line"/>
      <point x="1241.47924963" y="-20"/>
      <point x="1473.47924963" y="333"/>
      <point x="1473.47924963" y="735" type="curve" smooth="yes"/>
      <point x="1473.47924963" y="1064"/>
      <point x="1274.47924963" y="1332"/>
      <point x="950.479249632" y="1332" type="curve" smooth="yes"/>
      <point x="543.479249632" y="1332"/>
      <point x="291.479249632" y="970"/>
      <point x="291.479249632" y="566" type="curve" smooth="yes"/>
      <point x="291.479249632" y="314"/>
      <point x="422.479249632" y="71"/>
      <point x="677.479249632" y="0" type="curve"/>
      <point x="820.479249632" y="-123"/>
      <point x="925.479249632" y="-210"/>
    </contour>
    <contour>
      <point x="832.479249632" y="48" type="curve" smooth="yes"/>
      <point x="505.479249632" y="48"/>
      <point x="378.479249632" y="331"/>
      <point x="378.479249632" y="564" type="curve" smooth="yes"/>
      <point x="378.479249632" y="905"/>
      <point x="576.479249632" y="1263"/>
      <point x="952.479249632" y="1263" type="curve" smooth="yes"/>
      <point x="1267.47924963" y="1263"/>
      <point x="1389.47924963" y="1004"/>
      <point x="1389.47924963" y="733" type="curve" smooth="yes"/>
      <point x="1389.47924963" y="410"/>
      <point x="1212.47924963" y="48"/>
    </contour>
  </outline>
</glyph>
<glyph name="R" format="1">
  <advance width="1248.70213829"/>
  <unicode hex="0052"/>
  <outline>
    <contour>
      <point x="727.702138289" y="654" type="curve" smooth="yes"/>
      <point x="624.702138289" y="654" type="line"/>
      <point x="936.702138289" y="62" type="line"/>
      <point x="1146.70213829" y="62" type="line"/>
      <point x="1138.70213829" y="0" type="line"/>
      <point x="872.702138289" y="0" type="line"/>
      <point x="538.702138289" y="654" type="line"/>
      <point x="398.702138289" y="654" type="line"/>
      <point x="271.702138289" y="62" type="line"/>
      <point x="483.702138289" y="62" type="line"/>
      <point x="471.702138289" y="0" type="line"/>
      <point x="-0.297861710544" y="0" type="line"/>
      <point x="10.7021382895" y="62" type="line"/>
      <point x="181.702138289" y="62" type="line"/>
      <point x="433.702138289" y="1249" type="line"/>
      <point x="236.702138289" y="1249" type="line"/>
      <point x="249.702138289" y="1312" type="line"/>
      <point x="837.702138289" y="1312" type="line" smooth="yes"/>
      <point x="1078.70213829" y="1312"/>
      <point x="1185.70213829" y="1184"/>
      <point x="1185.70213829" y="1041" type="curve" smooth="yes"/>
      <point x="1185.70213829" y="858"/>
      <point x="1011.70213829" y="654"/>
    </contour>
    <contour>
      <point x="411.702138289" y="716" type="line"/>
      <point x="745.702138289" y="716" type="line" smooth="yes"/>
      <point x="961.702138289" y="716"/>
      <point x="1097.70213829" y="885"/>
      <point x="1097.70213829" y="1034" type="curve" smooth="yes"/>
      <point x="1097.70213829" y="1147"/>
      <point x="1016.70213829" y="1249"/>
      <point x="836.702138289" y="1249" type="curve" smooth="yes"/>
      <point x="524.702138289" y="1249" type="line"/>
    </contour>
  </outline>
</glyph>
<glyph name="S" format="1">
  <advance width="1007.26268506"/>
  <unicode hex="0053"/>
  <outline>
    <contour>
      <point x="197.262685062" y="0" type="line"/>
      <point x="211.262685062" y="88" type="line"/>
      <point x="211.262685062" y="88"/>
      <point x="266.262685062" y="-20"/>
      <point x="481.262685062" y="-20" type="curve" smooth="yes"/>
      <point x="707.262685062" y="-20"/>
      <point x="896.262685062" y="101"/>
      <point x="896.262685062" y="310" type="curve" smooth="yes"/>
      <point x="896.262685062" y="486"/>
      <point x="767.262685062" y="595"/>
      <point x="638.262685062" y="694" type="curve" smooth="yes"/>
      <point x="509.262685062" y="793"/>
      <point x="380.262685062" y="882"/>
      <point x="380.262685062" y="1016" type="curve" smooth="yes"/>
      <point x="380.262685062" y="1177"/>
      <point x="497.262685062" y="1265"/>
      <point x="662.262685062" y="1265" type="curve" smooth="yes"/>
      <point x="793.262685062" y="1265"/>
      <point x="898.262685062" y="1184"/>
      <point x="887.262685062" y="1100" type="curve"/>
      <point x="881.262685062" y="1045" type="line"/>
      <point x="948.262685062" y="1065" type="line"/>
      <point x="973.262685062" y="1311" type="line"/>
      <point x="909.262685062" y="1311" type="line"/>
      <point x="903.262685062" y="1233" type="line"/>
      <point x="876.262685062" y="1292"/>
      <point x="747.262685062" y="1332"/>
      <point x="667.262685062" y="1332" type="curve" smooth="yes"/>
      <point x="461.262685062" y="1332"/>
      <point x="289.262685062" y="1219"/>
      <point x="289.262685062" y="1007" type="curve" smooth="yes"/>
      <point x="289.262685062" y="856"/>
      <point x="418.262685062" y="759"/>
      <point x="547.262685062" y="661" type="curve" smooth="yes"/>
      <point x="676.262685062" y="563"/>
      <point x="805.262685062" y="465"/>
      <point x="805.262685062" y="311" type="curve" smooth="yes"/>
      <point x="805.262685062" y="107"/>
      <point x="645.262685062" y="48"/>
      <point x="493.262685062" y="48" type="curve" smooth="yes"/>
      <point x="349.262685062" y="48"/>
      <point x="215.262685062" y="103"/>
      <point x="232.262685062" y="227" type="curve"/>
      <point x="246.262685062" y="313" type="line"/>
      <point x="173.262685062" y="298" type="line"/>
      <point x="125.262685062" y="0" type="line"/>
    </contour>
  </outline>
</glyph>
<glyph name="T" format="1">
  <advance width="1137.70213829"/>
  <unicode hex="0054"/>
  <outline>
    <contour>
      <point x="292.373646205" y="1312" type="line"/>
      <point x="1268.07578449" y="1312" type="line"/>
      <point x="1212.07578449" y="1040" type="line"/>
      <point x="1126.37364621" y="1040" type="line"/>
      <point x="1170.07578449" y="1249" type="line"/>
      <point x="805.075784495" y="1249" type="line"/>
      <point x="557.075784495" y="62" type="line"/>
      <point x="767.075784495" y="62" type="line"/>
      <point x="756.075784495" y="0" type="line"/>
      <point x="286.075784495" y="0" type="line"/>
      <point x="297.075784495" y="62" type="line"/>
      <point x="474.075784495" y="62" type="line"/>
      <point x="718.075784495" y="1249" type="line"/>
      <point x="364.373646205" y="1249" type="line"/>
      <point x="320.373646205" y="1040" type="line"/>
      <point x="235.373646205" y="1040" type="line"/>
    </contour>
  </outline>
</glyph>
<glyph name="U" format="1">
  <advance width="1422.83958275"/>
  <unicode hex="0055"/>
  <outline>
    <contour>
      <point x="1400.19718653" y="1249" type="line"/>
      <point x="1223.19718653" y="404" type="line"/>
      <point x="1153.77718653" y="108"/>
      <point x="909.175186534" y="-20"/>
      <point x="682.197186534" y="-20" type="curve" smooth="yes"/>
      <point x="411.453660337" y="-20.0"/>
      <point x="183.542347458" y="147.346850452"/>
      <point x="244.197186534" y="416" type="curve" smooth="yes"/>
      <point x="414.197186534" y="1249" type="line"/>
      <point x="219.197186534" y="1249" type="line"/>
      <point x="229.495048245" y="1311" type="line"/>
      <point x="701.495048245" y="1311" type="line"/>
      <point x="689.197186534" y="1249" type="line"/>
      <point x="501.197186534" y="1249" type="line"/>
      <point x="325.197186534" y="414" type="line" smooth="yes"/>
      <point x="270.506175118" y="190.284433742"/>
      <point x="464.590590785" y="48.0"/>
      <point x="685.197186534" y="48" type="curve" smooth="yes"/>
      <point x="873.125186534" y="48"/>
      <point x="1080.90618653" y="153.829"/>
      <point x="1134.19718653" y="404" type="curve" smooth="yes"/>
      <point x="1314.19718653" y="1249" type="line"/>
      <point x="1120.19718653" y="1249" type="line"/>
      <point x="1129.49504825" y="1311" type="line"/>
      <point x="1581.49504825" y="1311" type="line"/>
      <point x="1571.49504825" y="1249" type="line"/>
    </contour>
  </outline>
</glyph>
<glyph name="V" format="1">
  <advance width="1435.0466728"/>
  <unicode hex="0056"/>
  <outline>
    <contour>
      <point x="575.197186534" y="0" type="line"/>
      <point x="680.197186534" y="0" type="line"/>
      <point x="1412.49504825" y="1248" type="line"/>
      <point x="1568.49504825" y="1248" type="line"/>
      <point x="1581.49504825" y="1311" type="line"/>
      <point x="1186.49504825" y="1311" type="line"/>
      <point x="1173.49504825" y="1248" type="line"/>
      <point x="1309.49504825" y="1248" type="line"/>
      <point x="648" y="83" type="line"/>
      <point x="456" y="1248" type="line"/>
      <point x="613.495048245" y="1248" type="line"/>
      <point x="626.495048245" y="1311" type="line"/>
      <point x="230.495048245" y="1311" type="line"/>
      <point x="217.495048245" y="1248" type="line"/>
      <point x="366.495048245" y="1248" type="line"/>
    </contour>
  </outline>
</glyph>
<glyph name="W" format="1">
  <advance width="1891.0466728"/>
  <unicode hex="0057"/>
  <outline>
    <contour>
      <point x="2044.49504825" y="1248" type="line"/>
      <point x="1889.49504825" y="1248" type="line"/>
      <point x="1266.49504825" y="0" type="line"/>
      <point x="1161.49504825" y="0" type="line"/>
      <point x="1091.49504825" y="1086" type="line"/>
      <point x="563.495048245" y="0" type="line"/>
      <point x="458.495048245" y="0" type="line"/>
      <point x="382.495048245" y="1248" type="line"/>
      <point x="234.495048245" y="1248" type="line"/>
      <point x="249" y="1311" type="line"/>
      <point x="646" y="1311" type="line"/>
      <point x="631.495048245" y="1248" type="line"/>
      <point x="475.495048245" y="1248" type="line"/>
      <point x="533.495048245" y="105" type="line"/>
      <point x="1111.49504825" y="1311" type="line"/>
      <point x="1156.49504825" y="1311" type="line"/>
      <point x="1236.49504825" y="105" type="line"/>
      <point x="1785.49504825" y="1248" type="line"/>
      <point x="1650.49504825" y="1248" type="line"/>
      <point x="1665" y="1311" type="line"/>
      <point x="2059" y="1311" type="line"/>
    </contour>
  </outline>
</glyph>
<glyph name="X" format="1">
  <advance width="1341.60879269"/>
  <unicode hex="0058"/>
  <outline>
    <contour>
      <point x="241.448375446" y="1248" type="line"/>
      <point x="267.448375446" y="1311" type="line"/>
      <point x="738.448375446" y="1311" type="line"/>
      <point x="711.448375446" y="1248" type="line"/>
      <point x="553.448375446" y="1248" type="line"/>
      <point x="746" y="756" type="line"/>
      <point x="1114" y="1248" type="line"/>
      <point x="914.448375446" y="1248" type="line"/>
      <point x="937.448375446" y="1311" type="line"/>
      <point x="1408.44837545" y="1311" type="line"/>
      <point x="1385.44837545" y="1248" type="line"/>
      <point x="1220.44837545" y="1248" type="line"/>
      <point x="780.448375446" y="669" type="line"/>
      <point x="1017.44837545" y="62" type="line"/>
      <point x="1226.44837545" y="62" type="line"/>
      <point x="1211.44837545" y="0" type="line"/>
      <point x="741.448375446" y="0" type="line"/>
      <point x="756.448375446" y="62" type="line"/>
      <point x="933.448375446" y="62" type="line"/>
      <point x="723" y="602" type="line"/>
      <point x="314" y="62" type="line"/>
      <point x="529.448375446" y="62" type="line"/>
      <point x="504.448375446" y="0" type="line"/>
      <point x="35.4483754461" y="0" type="line"/>
      <point x="60.4483754461" y="62" type="line"/>
      <point x="210.448375446" y="62" type="line"/>
      <point x="687.448375446" y="691" type="line"/>
      <point x="467.448375446" y="1248" type="line"/>
    </contour>
  </outline>
</glyph>
<glyph name="Y" format="1">
  <advance width="1294.0466728"/>
  <unicode hex="0059"/>
  <outline>
    <contour>
      <point x="1422.49504825" y="1248" type="line"/>
      <point x="1266.49504825" y="1248" type="line"/>
      <point x="738.495048245" y="519" type="line"/>
      <point x="643.495048245" y="62" type="line"/>
      <point x="852.495048245" y="62" type="line"/>
      <point x="842.495048245" y="0" type="line"/>
      <point x="371.495048245" y="0" type="line"/>
      <point x="381" y="62" type="line"/>
      <point x="560" y="62" type="line"/>
      <point x="653.495048245" y="526" type="line"/>
      <point x="385.495048245" y="1248" type="line"/>
      <point x="237.495048245" y="1248" type="line"/>
      <point x="248.495048245" y="1311" type="line"/>
      <point x="644.495048245" y="1311" type="line"/>
      <point x="633.495048245" y="1248" type="line"/>
      <point x="481" y="1248" type="line"/>
      <point x="713" y="601" type="line"/>
      <point x="1164.49504825" y="1248" type="line"/>
      <point x="1028.49504825" y="1248" type="line"/>
      <point x="1041.49504825" y="1311" type="line"/>
      <point x="1434.49504825" y="1311" type="line"/>
    </contour>
  </outline>
</glyph>
<glyph name="Z" format="1">
  <advance width="1116.49504825"/>
  <unicode hex="005A"/>
  <outline>
    <contour>
      <point x="964.495048245" y="334.0" type="line"/>
      <point x="1048.49504825" y="334.0" type="line"/>
      <point x="981.495048245" y="0.0" type="line"/>
      <point x="112.495048245" y="0.0" type="line"/>
      <point x="92.495048245" y="36.0" type="line"/>
      <point x="1049.49504825" y="1248.0" type="line"/>
      <point x="423.495048245" y="1248.0" type="line"/>
      <point x="367.495048245" y="976.0" type="line"/>
      <point x="282.495048245" y="976.0" type="line"/>
      <point x="351.495048245" y="1311.0" type="line"/>
      <point x="1161.49504825" y="1311.0" type="line"/>
      <point x="1177.49504825" y="1283.0" type="line"/>
      <point x="215.495048245" y="62.0" type="line"/>
      <point x="908.495048245" y="62.0" type="line"/>
    </contour>
  </outline>
</glyph>
<glyph name="bracketleft" format="1">
  <advance width="492"/>
  <unicode hex="005B"/>
  <outline>
    <contour>
      <point x="314" y="1306" type="line"/>
      <point x="565" y="1306" type="line"/>
      <point x="551" y="1241" type="line"/>
      <point x="385" y="1241" type="line"/>
      <point x="130" y="42" type="line"/>
      <point x="296" y="42" type="line"/>
      <point x="283" y="-23" type="line"/>
      <point x="31" y="-23" type="line"/>
    </contour>
  </outline>
</glyph>
<glyph name="a" format="1">
  <advance width="1024.13819312"/>
  <unicode hex="0061"/>
  <outline>
    <contour>
      <point x="421.071121468" y="-14" type="curve"/>
      <point x="597.071121468" y="-14"/>
      <point x="692.071121468" y="60"/>
      <point x="722.071121468" y="106" type="curve"/>
      <point x="729.071121468" y="40"/>
      <point x="771.071121468" y="-9"/>
      <point x="850.071121468" y="-9" type="curve" smooth="yes"/>
      <point x="950.071121468" y="-9"/>
      <point x="1016.07112147" y="64"/>
      <point x="1043.07112147" y="188" type="curve"/>
      <point x="985.071121468" y="210" type="line"/>
      <point x="965.071121468" y="134"/>
      <point x="927.071121468" y="52"/>
      <point x="860.071121468" y="52" type="curve" smooth="yes"/>
      <point x="781.071121468" y="52"/>
      <point x="804.071121468" y="156"/>
      <point x="813.071121468" y="202" type="curve" smooth="yes"/>
      <point x="890.071121468" y="593" type="line" smooth="yes"/>
      <point x="911.071121468" y="701"/>
      <point x="907.071121468" y="854"/>
      <point x="647.071121468" y="854" type="curve" smooth="yes"/>
      <point x="513.071121468" y="854"/>
      <point x="417.071121468" y="817"/>
      <point x="329.071121468" y="746" type="curve"/>
      <point x="353.071121468" y="687" type="line"/>
      <point x="425.071121468" y="748"/>
      <point x="506.071121468" y="787"/>
      <point x="631.071121468" y="787" type="curve" smooth="yes"/>
      <point x="778.071121468" y="787"/>
      <point x="837.071121468" y="736"/>
      <point x="806.071121468" y="575" type="curve" smooth="yes"/>
      <point x="781.071121468" y="446" type="line"/>
      <point x="703.071121468" y="462"/>
      <point x="673.071121468" y="475"/>
      <point x="596.071121468" y="475" type="curve" smooth="yes"/>
      <point x="418.071121468" y="475"/>
      <point x="228.071121468" y="452"/>
      <point x="185.071121468" y="232" type="curve" smooth="yes"/>
      <point x="159.071121468" y="101"/>
      <point x="228.071121468" y="-14"/>
    </contour>
    <contour>
      <point x="429" y="53" type="curve" smooth="yes"/>
      <point x="267" y="53"/>
      <point x="249.071121468" y="148"/>
      <point x="265.071121468" y="230" type="curve" smooth="yes"/>
      <point x="300.071121468" y="407"/>
      <point x="459.071121468" y="410"/>
      <point x="579.071121468" y="410" type="curve" smooth="yes"/>
      <point x="681.071121468" y="410"/>
      <point x="769.071121468" y="384"/>
      <point x="769.071121468" y="384" type="curve"/>
      <point x="722.071121468" y="158" type="line"/>
      <point x="622.071121468" y="80"/>
      <point x="543" y="53"/>
    </contour>
  </outline>
</glyph>
<glyph name="b" format="1">
  <advance width="1010.78731711"/>
  <unicode hex="0062"/>
  <outline>
    <contour>
      <point x="520.164773669" y="1265" type="line"/>
      <point x="400.164773669" y="686" type="line"/>
      <point x="459.164773669" y="793"/>
      <point x="566.164773669" y="851"/>
      <point x="670.164773669" y="851" type="curve" smooth="yes"/>
      <point x="879.164773669" y="851"/>
      <point x="976.164773669" y="674"/>
      <point x="976.164773669" y="479" type="curve" smooth="yes"/>
      <point x="976.164773669" y="243"/>
      <point x="833.164773669" y="-18"/>
      <point x="573.164773669" y="-18" type="curve" smooth="yes"/>
      <point x="451.164773669" y="-18"/>
      <point x="329.164773669" y="65"/>
      <point x="302.164773669" y="233" type="curve"/>
      <point x="262.164773669" y="0" type="line"/>
      <point x="177.164773669" y="0" type="line"/>
      <point x="421.164773669" y="1208" type="line"/>
      <point x="253.164773669" y="1208" type="line"/>
      <point x="265.164773669" y="1265" type="line"/>
    </contour>
    <contour>
      <point x="904.164773669" y="488" type="curve" smooth="yes"/>
      <point x="904.164773669" y="647"/>
      <point x="832.164773669" y="789"/>
      <point x="674.164773669" y="789" type="curve" smooth="yes"/>
      <point x="522.164773669" y="789"/>
      <point x="395.164773669" y="666"/>
      <point x="357.164773669" y="499" type="curve" smooth="yes"/>
      <point x="357.164773669" y="499"/>
      <point x="330.164773669" y="359"/>
      <point x="330.164773669" y="359" type="curve"/>
      <point x="330.164773669" y="198"/>
      <point x="410.164773669" y="43"/>
      <point x="575.164773669" y="43" type="curve" smooth="yes"/>
      <point x="783.164773669" y="43"/>
      <point x="904.164773669" y="281"/>
    </contour>
  </outline>
</glyph>
<glyph name="c" format="1">
  <advance width="990.547509065"/>
  <unicode hex="0063"/>
  <outline>
    <contour>
      <point x="850.752816618" y="733" type="line"/>
      <point x="850.752816618" y="750"/>
      <point x="780.752816618" y="789"/>
      <point x="690.752816618" y="789" type="curve" smooth="yes"/>
      <point x="442.752816618" y="789"/>
      <point x="296.752816618" y="542"/>
      <point x="296.752816618" y="333" type="curve" smooth="yes"/>
      <point x="296.752816618" y="178"/>
      <point x="376.752816618" y="43"/>
      <point x="555.752816618" y="43" type="curve" smooth="yes"/>
      <point x="647.752816618" y="43"/>
      <point x="748.752816618" y="95"/>
      <point x="829.752816618" y="208" type="curve"/>
      <point x="879.752816618" y="170" type="line"/>
      <point x="797.752816618" y="43"/>
      <point x="668.752816618" y="-18"/>
      <point x="552.752816618" y="-18" type="curve" smooth="yes"/>
      <point x="323.752816618" y="-18"/>
      <point x="219.752516618" y="149"/>
      <point x="219.752516618" y="336" type="curve" smooth="yes"/>
      <point x="219.752516618" y="576"/>
      <point x="391.752816618" y="851"/>
      <point x="693.752816618" y="851" type="curve" smooth="yes"/>
      <point x="803.752816618" y="851"/>
      <point x="930.752816618" y="802"/>
      <point x="923.752816618" y="741" type="curve" smooth="yes"/>
      <point x="909.752816618" y="632" type="line"/>
      <point x="838.752816618" y="613" type="line"/>
    </contour>
  </outline>
</glyph>
<glyph name="d" format="1">
  <advance width="1151.69124136"/>
  <unicode hex="0064"/>
  <outline>
    <contour>
      <point x="528.62416971" y="-18" type="curve" smooth="yes"/>
      <point x="632.62416971" y="-18"/>
      <point x="747.62416971" y="48"/>
      <point x="806.62416971" y="154" type="curve"/>
      <point x="794.909883996" y="72.0"/>
      <point x="830.197503043" y="-9.0"/>
      <point x="940.62416971" y="-9" type="curve" smooth="yes"/>
      <point x="1030.62416971" y="-9"/>
      <point x="1100.62416971" y="64"/>
      <point x="1127.62416971" y="188" type="curve"/>
      <point x="1070.62416971" y="210" type="line"/>
      <point x="1048.62416971" y="134"/>
      <point x="1009.62416971" y="52"/>
      <point x="944.62416971" y="52" type="curve" smooth="yes"/>
      <point x="898.62416971" y="52"/>
      <point x="886.62416971" y="90"/>
      <point x="886.62416971" y="130" type="curve" smooth="yes"/>
      <point x="886.62416971" y="148"/>
      <point x="889.62416971" y="166"/>
      <point x="892.62416971" y="181" type="curve" smooth="yes"/>
      <point x="1109.62416971" y="1260" type="line"/>
      <point x="855.62416971" y="1260" type="line"/>
      <point x="843.62416971" y="1203" type="line"/>
      <point x="1011.62416971" y="1203" type="line"/>
      <point x="892.62416971" y="624" type="line"/>
      <point x="852.62416971" y="782"/>
      <point x="749.62416971" y="850"/>
      <point x="625.62416971" y="850" type="curve" smooth="yes"/>
      <point x="375.62416971" y="850"/>
      <point x="223" y="582"/>
      <point x="223" y="344" type="curve" smooth="yes"/>
      <point x="223" y="142"/>
      <point x="315.62416971" y="-18"/>
    </contour>
    <contour>
      <point x="531" y="43" type="curve" smooth="yes"/>
      <point x="369" y="43"/>
      <point x="294.62416971" y="177"/>
      <point x="294.62416971" y="332" type="curve" smooth="yes"/>
      <point x="294.62416971" y="542"/>
      <point x="426.62416971" y="788"/>
      <point x="623.62416971" y="788" type="curve" smooth="yes"/>
      <point x="789.62416971" y="788"/>
      <point x="864.62416971" y="644"/>
      <point x="864.62416971" y="482" type="curve" smooth="yes"/>
      <point x="864.62416971" y="459.442148507"/>
      <point x="863.13726646" y="436.560535822"/>
      <point x="860.205478553" y="413.696563022" type="curve" smooth="yes"/>
      <point x="836.363958329" y="227.765012978"/>
      <point x="723" y="43"/>
    </contour>
  </outline>
</glyph>
<glyph name="e" format="1">
  <advance width="1001.42022015"/>
  <unicode hex="0065"/>
  <outline>
    <contour>
      <point x="571.625527699" y="-18" type="curve" smooth="yes"/>
      <point x="695.625527699" y="-18"/>
      <point x="830.625527699" y="43"/>
      <point x="918.625527699" y="170" type="curve"/>
      <point x="868.625527699" y="208" type="line"/>
      <point x="781.625527699" y="95"/>
      <point x="672.625527699" y="43"/>
      <point x="574.625527699" y="43" type="curve" smooth="yes"/>
      <point x="428.625527699" y="43"/>
      <point x="305.625527699" y="156"/>
      <point x="305.625527699" y="358" type="curve" smooth="yes"/>
      <point x="305.625527699" y="378"/>
      <point x="306.625527699" y="401"/>
      <point x="311.625527699" y="420" type="curve"/>
      <point x="940.625527699" y="420" type="line"/>
      <point x="946.625527699" y="440"/>
      <point x="952.625527699" y="503"/>
      <point x="952.625527699" y="532" type="curve" smooth="yes"/>
      <point x="952.625527699" y="711"/>
      <point x="837.625527699" y="851"/>
      <point x="653.625527699" y="851" type="curve" smooth="yes"/>
      <point x="375.625527699" y="851"/>
      <point x="221.625527699" y="594"/>
      <point x="221.625527699" y="355" type="curve" smooth="yes"/>
      <point x="221.625527699" y="109"/>
      <point x="389.625527699" y="-18"/>
    </contour>
    <contour>
      <point x="320.625527699" y="476" type="line"/>
      <point x="365.625527699" y="678"/>
      <point x="506.625527699" y="789"/>
      <point x="656.625527699" y="789" type="curve" smooth="yes"/>
      <point x="792.625527699" y="789"/>
      <point x="884.625527699" y="684"/>
      <point x="884.625527699" y="542" type="curve" smooth="yes"/>
      <point x="884.625527699" y="521"/>
      <point x="882.625527699" y="500"/>
      <point x="878.625527699" y="476" type="curve"/>
    </contour>
  </outline>
</glyph>
<glyph name="f" format="1">
  <advance width="812.087470496"/>
  <unicode hex="0066"/>
  <outline>
    <contour>
      <point x="946.45933421" y="1209" type="curve"/>
      <point x="899.45933421" y="1159" type="line"/>
      <point x="874.45933421" y="1190"/>
      <point x="840.45933421" y="1206"/>
      <point x="803.45933421" y="1206" type="curve" smooth="yes"/>
      <point x="725.45933421" y="1206"/>
      <point x="641.45933421" y="1147"/>
      <point x="625.45933421" y="1071" type="curve" smooth="yes"/>
      <point x="573.45933421" y="828" type="line"/>
      <point x="765.45933421" y="828" type="line"/>
      <point x="752.45933421" y="770" type="line"/>
      <point x="561.45933421" y="770" type="line"/>
      <point x="413.45933421" y="62" type="line"/>
      <point x="612.45933421" y="62" type="line"/>
      <point x="599.45933421" y="0" type="line"/>
      <point x="146.45933421" y="0" type="line"/>
      <point x="160.45933421" y="62" type="line"/>
      <point x="331.45933421" y="62" type="line"/>
      <point x="477.45933421" y="770" type="line"/>
      <point x="302.45933421" y="770" type="line"/>
      <point x="316.45933421" y="828" type="line"/>
      <point x="492.45933421" y="828" type="line"/>
      <point x="542.45933421" y="1069" type="line"/>
      <point x="564.45933421" y="1181"/>
      <point x="686.45933421" y="1267"/>
      <point x="803.45933421" y="1267" type="curve" smooth="yes"/>
      <point x="855.45933421" y="1267"/>
      <point x="905.45933421" y="1251"/>
    </contour>
  </outline>
</glyph>
<glyph name="g" format="1">
  <advance width="1025.49072343"/>
  <unicode hex="0067"/>
  <outline>
    <contour>
      <point x="463.631475321" y="-312" type="curve" smooth="yes"/>
      <point x="659.631475321" y="-312"/>
      <point x="803.631475321" y="-212"/>
      <point x="856.631475321" y="49" type="curve" smooth="yes"/>
      <point x="1013.63147532" y="828" type="line"/>
      <point x="929.631475321" y="828" type="line"/>
      <point x="890.631475321" y="598" type="line"/>
      <point x="861.631475321" y="766"/>
      <point x="741.631475321" y="850"/>
      <point x="617.631475321" y="850" type="curve" smooth="yes"/>
      <point x="359.631475321" y="850"/>
      <point x="218.631475321" y="614"/>
      <point x="218.631475321" y="350" type="curve" smooth="yes"/>
      <point x="218.631475321" y="94"/>
      <point x="372.631475321" y="-18"/>
      <point x="530.631475321" y="-18" type="curve" smooth="yes"/>
      <point x="635.631475321" y="-18"/>
      <point x="743.631475321" y="43"/>
      <point x="801.631475321" y="155" type="curve"/>
      <point x="776.631475321" y="51" type="line" smooth="yes"/>
      <point x="721.631475321" y="-179"/>
      <point x="632.631475321" y="-251"/>
      <point x="463.631475321" y="-251" type="curve" smooth="yes"/>
      <point x="371.631475321" y="-251"/>
      <point x="294.631475321" y="-219"/>
      <point x="245.631475321" y="-174" type="curve"/>
      <point x="210.631475321" y="-225" type="line"/>
      <point x="280.631475321" y="-285"/>
      <point x="368.631475321" y="-312"/>
    </contour>
    <contour>
      <point x="526.631475321" y="43" type="curve" smooth="yes"/>
      <point x="361.631475321" y="43"/>
      <point x="293" y="200"/>
      <point x="298" y="362" type="curve" smooth="yes"/>
      <point x="304" y="560"/>
      <point x="398.631475321" y="788"/>
      <point x="615.631475321" y="788" type="curve" smooth="yes"/>
      <point x="781.631475321" y="788"/>
      <point x="856.631475321" y="644"/>
      <point x="856.631475321" y="482" type="curve" smooth="yes"/>
      <point x="856.631475321" y="463.698347539"/>
      <point x="855.684306456" y="445.183582083"/>
      <point x="853.811006052" y="426.638027111" type="curve" smooth="yes"/>
      <point x="834.598785125" y="236.438260741"/>
      <point x="717.974450967" y="43.0"/>
    </contour>
  </outline>
</glyph>
<glyph name="h" format="1">
  <advance width="1050.23184532"/>
  <unicode hex="0068"/>
  <outline>
    <contour>
      <point x="547.164773669" y="1265" type="line"/>
      <point x="424.164773669" y="694" type="line"/>
      <point x="497.164773669" y="793"/>
      <point x="603.164773669" y="851"/>
      <point x="718.164773669" y="851" type="curve" smooth="yes"/>
      <point x="907.206790476" y="851.0"/>
      <point x="959.8889116" y="708.310344828"/>
      <point x="924.164773669" y="545" type="curve" smooth="yes"/>
      <point x="843.164773669" y="202" type="line" smooth="yes"/>
      <point x="834.519612379" y="165.258064516"/>
      <point x="802.692551447" y="52.0"/>
      <point x="890.164773669" y="52" type="curve" smooth="yes"/>
      <point x="955.164773669" y="52"/>
      <point x="994.164773669" y="134"/>
      <point x="1016.16477367" y="210" type="curve"/>
      <point x="1073.16477367" y="188" type="line"/>
      <point x="1046.16477367" y="64"/>
      <point x="976.164773669" y="-9"/>
      <point x="886.164773669" y="-9" type="curve" smooth="yes"/>
      <point x="754.191440336" y="-9.0"/>
      <point x="734.599556278" y="94.4782608696"/>
      <point x="760.164773669" y="201" type="curve" smooth="yes"/>
      <point x="845.164773669" y="550" type="line"/>
      <point x="881.004773669" y="670.96"/>
      <point x="845.911900106" y="789.0"/>
      <point x="708.164773669" y="789" type="curve" smooth="yes"/>
      <point x="596.164773669" y="789"/>
      <point x="426.164773669" y="687"/>
      <point x="383.164773669" y="469" type="curve" smooth="yes"/>
      <point x="290.164773669" y="0" type="line"/>
      <point x="205.164773669" y="0" type="line"/>
      <point x="449.164773669" y="1208" type="line"/>
      <point x="281.164773669" y="1208" type="line"/>
      <point x="293.164773669" y="1265" type="line"/>
    </contour>
  </outline>
</glyph>
<glyph name="i" format="1">
  <advance width="574.709268256"/>
  <unicode hex="0069"/>
  <outline>
    <contour>
      <point x="249.470556786" y="208" type="curve" smooth="yes"/>
      <point x="365.470556786" y="770" type="line"/>
      <point x="197.470556786" y="770" type="line"/>
      <point x="209.470556786" y="828" type="line"/>
      <point x="463.470556786" y="828" type="line"/>
      <point x="334.470556786" y="210" type="line" smooth="yes"/>
      <point x="321.692779008" y="146.111111111"/>
      <point x="304.041985357" y="52.0"/>
      <point x="389.470556786" y="52" type="curve" smooth="yes"/>
      <point x="455.470556786" y="52"/>
      <point x="489.470556786" y="135"/>
      <point x="513.470556786" y="213" type="curve"/>
      <point x="567.470556786" y="192" type="line"/>
      <point x="533.470556786" y="65"/>
      <point x="475.470556786" y="-9"/>
      <point x="378.470556786" y="-9" type="curve" smooth="yes"/>
      <point x="264.091246441" y="-9.0"/>
      <point x="222.720556786" y="90.3"/>
    </contour>
    <contour>
      <point x="457.470556786" y="1024" type="curve" smooth="yes"/>
      <point x="417.470556786" y="1024"/>
      <point x="387.470556786" y="1056"/>
      <point x="387.470556786" y="1093" type="curve" smooth="yes"/>
      <point x="387.470556786" y="1136"/>
      <point x="417.470556786" y="1164"/>
      <point x="455.470556786" y="1164" type="curve" smooth="yes"/>
      <point x="508.470556786" y="1164"/>
      <point x="530.470556786" y="1126"/>
      <point x="530.470556786" y="1093" type="curve" smooth="yes"/>
      <point x="530.470556786" y="1059"/>
      <point x="503.470556786" y="1024"/>
    </contour>
  </outline>
</glyph>
<glyph name="j" format="1">
  <advance width="554.686870565"/>
  <unicode hex="006A"/>
  <outline>
    <contour>
      <point x="507.64728027" y="1024" type="curve" smooth="yes"/>
      <point x="467.64728027" y="1024"/>
      <point x="437.64728027" y="1056"/>
      <point x="437.64728027" y="1093" type="curve" smooth="yes"/>
      <point x="437.64728027" y="1136"/>
      <point x="467.64728027" y="1164"/>
      <point x="505.64728027" y="1164" type="curve" smooth="yes"/>
      <point x="558.64728027" y="1164"/>
      <point x="580.64728027" y="1126"/>
      <point x="580.64728027" y="1093" type="curve" smooth="yes"/>
      <point x="580.64728027" y="1059"/>
      <point x="553.64728027" y="1024"/>
    </contour>
    <contour>
      <point x="246.64728027" y="-36" type="curve" smooth="yes"/>
      <point x="417.64728027" y="769" type="line"/>
      <point x="275.64728027" y="769" type="line"/>
      <point x="287.64728027" y="828" type="line"/>
      <point x="511.64728027" y="828" type="line"/>
      <point x="332.64728027" y="-22" type="line"/>
      <point x="304.64728027" y="-149"/>
      <point x="277.64728027" y="-282"/>
      <point x="54.6472802703" y="-282" type="curve" smooth="yes"/>
      <point x="-27.3527197297" y="-282" type="line"/>
      <point x="-14.3527197297" y="-219" type="line"/>
      <point x="68.6472802703" y="-219" type="line" smooth="yes"/>
      <point x="207.64728027" y="-219"/>
      <point x="221.64728027" y="-155"/>
    </contour>
  </outline>
</glyph>
<glyph name="k" format="1">
  <advance width="957.924015894"/>
  <unicode hex="006B"/>
  <outline>
    <contour>
      <point x="516" y="400" type="line"/>
      <point x="332" y="400" type="line"/>
      <point x="251.685304424" y="0" type="line"/>
      <point x="166.685304424" y="0" type="line"/>
      <point x="422.685304424" y="1225" type="line"/>
      <point x="255" y="1225" type="line"/>
      <point x="266.685304424" y="1283" type="line"/>
      <point x="519.685304424" y="1283" type="line"/>
      <point x="346" y="459" type="line"/>
      <point x="522" y="459" type="line"/>
      <point x="714" y="748" type="line" smooth="yes"/>
      <point x="767" y="835"/>
      <point x="802" y="851"/>
      <point x="870" y="851" type="curve" smooth="yes"/>
      <point x="966" y="851" type="line"/>
      <point x="954" y="790" type="line"/>
      <point x="893" y="790" type="line" smooth="yes"/>
      <point x="830" y="790"/>
      <point x="814" y="761"/>
      <point x="787" y="718" type="curve" smooth="yes"/>
      <point x="590" y="427" type="line"/>
      <point x="660" y="155" type="line" smooth="yes"/>
      <point x="671" y="113"/>
      <point x="686.685304424" y="52"/>
      <point x="736.685304424" y="52" type="curve" smooth="yes"/>
      <point x="804.685304424" y="52"/>
      <point x="837.685304424" y="135"/>
      <point x="863.685304424" y="213" type="curve"/>
      <point x="917.685304424" y="192" type="line"/>
      <point x="883.685304424" y="65"/>
      <point x="825.685304424" y="-9"/>
      <point x="727.685304424" y="-9" type="curve" smooth="yes"/>
      <point x="633.685304424" y="-9"/>
      <point x="603.685304424" y="58"/>
      <point x="581.685304424" y="143" type="curve"/>
    </contour>
  </outline>
</glyph>
<glyph name="l" format="1">
  <advance width="516.924015894"/>
  <unicode hex="006C"/>
  <outline>
    <contour>
      <point x="214.685304424" y="208" type="curve" smooth="yes"/>
      <point x="427.685304424" y="1225" type="line"/>
      <point x="258.685304424" y="1225" type="line"/>
      <point x="271.685304424" y="1283" type="line"/>
      <point x="524.685304424" y="1283" type="line"/>
      <point x="299.685304424" y="210" type="line" smooth="yes"/>
      <point x="286.907526646" y="146.111111111"/>
      <point x="272.542447281" y="52.0"/>
      <point x="354.685304424" y="52" type="curve" smooth="yes"/>
      <point x="421.685304424" y="52"/>
      <point x="455.685304424" y="135"/>
      <point x="479.685304424" y="213" type="curve"/>
      <point x="533.685304424" y="192" type="line"/>
      <point x="501.685304424" y="65"/>
      <point x="443.685304424" y="-9"/>
      <point x="345.685304424" y="-9" type="curve" smooth="yes"/>
      <point x="230.076109022" y="-9.0"/>
      <point x="187.935304424" y="95.65"/>
    </contour>
  </outline>
</glyph>
<glyph name="m" format="1">
  <advance width="1525.6439791"/>
  <unicode hex="006D"/>
  <outline>
    <contour>
      <point x="889.470556786" y="469" type="curve" smooth="yes"/>
      <point x="797.470556786" y="0" type="line"/>
      <point x="708.470556786" y="0" type="line"/>
      <point x="819.470556786" y="550" type="line" smooth="yes"/>
      <point x="845.379647695" y="689.909090909"/>
      <point x="815.340122003" y="789.0"/>
      <point x="686.470556786" y="789" type="curve" smooth="yes"/>
      <point x="583.470556786" y="789"/>
      <point x="422.470556786" y="688"/>
      <point x="379.470556786" y="469" type="curve" smooth="yes"/>
      <point x="287.470556786" y="0" type="line"/>
      <point x="202.470556786" y="0" type="line"/>
      <point x="353.470556786" y="770" type="line"/>
      <point x="190.470556786" y="770" type="line"/>
      <point x="202.470556786" y="828" type="line"/>
      <point x="446.470556786" y="828" type="line"/>
      <point x="404.470556786" y="669" type="line"/>
      <point x="473.470556786" y="787"/>
      <point x="578.470556786" y="851"/>
      <point x="697.470556786" y="851" type="curve" smooth="yes"/>
      <point x="830.470556786" y="851"/>
      <point x="899.470556786" y="769"/>
      <point x="909.470556786" y="657" type="curve"/>
      <point x="981.470556786" y="773"/>
      <point x="1086.47055679" y="851"/>
      <point x="1207.47055679" y="851" type="curve" smooth="yes"/>
      <point x="1365.87055679" y="851.0"/>
      <point x="1419.47055679" y="719.0"/>
      <point x="1389.47055679" y="545" type="curve" smooth="yes"/>
      <point x="1319.47055679" y="190" type="line" smooth="yes"/>
      <point x="1309.47055679" y="135.0"/>
      <point x="1290.80389012" y="36.0"/>
      <point x="1372.47055679" y="36" type="curve" smooth="yes"/>
      <point x="1426.47055679" y="36"/>
      <point x="1466.47055679" y="119"/>
      <point x="1486.47055679" y="197" type="curve"/>
      <point x="1545.47055679" y="173" type="line"/>
      <point x="1516.47055679" y="50"/>
      <point x="1456.47055679" y="-28"/>
      <point x="1364.47055679" y="-28" type="curve" smooth="yes"/>
      <point x="1237.88827831" y="-28.0"/>
      <point x="1213.42293774" y="89.5238095238"/>
      <point x="1232.47055679" y="180" type="curve" smooth="yes"/>
      <point x="1305.47055679" y="550" type="line" smooth="yes"/>
      <point x="1331.3796477" y="689.909090909"/>
      <point x="1307.99229592" y="789.0"/>
      <point x="1196.47055679" y="789" type="curve" smooth="yes"/>
      <point x="1092.47055679" y="789"/>
      <point x="931.470556786" y="688"/>
    </contour>
  </outline>
</glyph>
<glyph name="n" format="1">
  <advance width="1051.52640586"/>
  <unicode hex="006E"/>
  <outline>
    <contour>
      <point x="195.45933421" y="0" type="line"/>
      <point x="346.45933421" y="770" type="line"/>
      <point x="183.45933421" y="770" type="line"/>
      <point x="196.45933421" y="828" type="line"/>
      <point x="439.45933421" y="828" type="line"/>
      <point x="397.45933421" y="669" type="line"/>
      <point x="472.45933421" y="782"/>
      <point x="581.45933421" y="851"/>
      <point x="710.45933421" y="851" type="curve" smooth="yes"/>
      <point x="898.257653538" y="851.0"/>
      <point x="950.183472141" y="708.310344828"/>
      <point x="914.45933421" y="545" type="curve" smooth="yes"/>
      <point x="833.45933421" y="202" type="line" smooth="yes"/>
      <point x="821.907610072" y="155.793103448"/>
      <point x="801.117228947" y="52.0"/>
      <point x="880.45933421" y="52" type="curve" smooth="yes"/>
      <point x="947.45933421" y="52"/>
      <point x="985.45933421" y="134"/>
      <point x="1005.45933421" y="210" type="curve"/>
      <point x="1063.45933421" y="188" type="line"/>
      <point x="1036.45933421" y="64"/>
      <point x="970.45933421" y="-9"/>
      <point x="870.45933421" y="-9" type="curve" smooth="yes"/>
      <point x="757.126000877" y="-9.0"/>
      <point x="726.45933421" y="101.0"/>
      <point x="750.45933421" y="201" type="curve" smooth="yes"/>
      <point x="835.45933421" y="550" type="line" smooth="yes"/>
      <point x="864.755630506" y="671.37037037"/>
      <point x="838.052357466" y="789.0"/>
      <point x="697.45933421" y="789" type="curve" smooth="yes"/>
      <point x="588.45933421" y="789"/>
      <point x="415.45933421" y="688"/>
      <point x="372.45933421" y="469" type="curve" smooth="yes"/>
      <point x="280.45933421" y="0" type="line"/>
    </contour>
  </outline>
</glyph>
<glyph name="o" format="1">
  <advance width="1040.47444707"/>
  <unicode hex="006F"/>
  <outline>
    <contour>
      <point x="216.856740958" y="345" type="curve" smooth="yes"/>
      <point x="216.856740958" y="583"/>
      <point x="382.856740958" y="851"/>
      <point x="650.856740958" y="851" type="curve" smooth="yes"/>
      <point x="885.856740958" y="851"/>
      <point x="991.856740958" y="674"/>
      <point x="991.856740958" y="479" type="curve" smooth="yes"/>
      <point x="991.856740958" y="243"/>
      <point x="835.856740958" y="-18"/>
      <point x="567.856740958" y="-18" type="curve" smooth="yes"/>
      <point x="322.856740958" y="-18"/>
      <point x="216.856740958" y="154"/>
    </contour>
    <contour>
      <point x="917.856740958" y="478" type="curve" smooth="yes"/>
      <point x="917.856740958" y="642"/>
      <point x="834.856740958" y="789"/>
      <point x="650.856740958" y="789" type="curve" smooth="yes"/>
      <point x="434.856740958" y="789"/>
      <point x="298.856740958" y="552"/>
      <point x="298.856740958" y="345" type="curve" smooth="yes"/>
      <point x="298.856740958" y="185"/>
      <point x="379.856740958" y="43"/>
      <point x="568.856740958" y="43" type="curve" smooth="yes"/>
      <point x="788.856740958" y="43"/>
      <point x="917.856740958" y="273"/>
    </contour>
  </outline>
</glyph>
<glyph name="p" format="1">
  <advance width="1015.39395801"/>
  <unicode hex="0070"/>
  <outline>
    <contour>
      <point x="913.666424254" y="495" type="curve" smooth="yes"/>
      <point x="913.666424254" y="652"/>
      <point x="848.666424254" y="789"/>
      <point x="705.666424254" y="789" type="curve" smooth="yes"/>
      <point x="498.7924516" y="789.0"/>
      <point x="374.536200877" y="587.619302792"/>
      <point x="357.647071692" y="394.030253437" type="curve" smooth="yes"/>
      <point x="356.330547648" y="378.939798782"/>
      <point x="355.666424254" y="363.896688938"/>
      <point x="355.666424254" y="349" type="curve" smooth="yes"/>
      <point x="355.666424254" y="188"/>
      <point x="429.666424254" y="43"/>
      <point x="596.666424254" y="43" type="curve" smooth="yes"/>
      <point x="798.666424254" y="43"/>
      <point x="913.666424254" y="286"/>
    </contour>
    <contour>
      <point x="144.666424254" y="-268" type="line"/>
      <point x="354.666424254" y="771" type="line"/>
      <point x="185.666424254" y="771" type="line"/>
      <point x="198.666424254" y="828" type="line"/>
      <point x="452.666424254" y="828" type="line"/>
      <point x="420.666424254" y="686" type="line"/>
      <point x="480.666424254" y="793"/>
      <point x="592.666424254" y="851"/>
      <point x="701.666424254" y="851" type="curve" smooth="yes"/>
      <point x="896.666424254" y="851"/>
      <point x="987.666424254" y="678"/>
      <point x="987.666424254" y="486" type="curve" smooth="yes"/>
      <point x="987.666424254" y="248"/>
      <point x="847.666424254" y="-18"/>
      <point x="594.666424254" y="-18" type="curve" smooth="yes"/>
      <point x="470.666424254" y="-18"/>
      <point x="350.666424254" y="65"/>
      <point x="321.666424254" y="233" type="curve"/>
      <point x="226.666424254" y="-268" type="line"/>
      <point x="425.666424254" y="-268" type="line"/>
      <point x="412.666424254" y="-329" type="line"/>
      <point x="-40.3335757461" y="-329" type="line"/>
      <point x="-26.3335757461" y="-268" type="line"/>
    </contour>
  </outline>
</glyph>
<glyph name="q" format="1">
  <advance width="1002.78899796"/>
  <unicode hex="0071"/>
  <outline>
    <contour>
      <point x="523.656373346" y="-329" type="line"/>
      <point x="537.656373346" y="-268" type="line"/>
      <point x="702.656373346" y="-268" type="line"/>
      <point x="787.656373346" y="145" type="line"/>
      <point x="728.656373346" y="39"/>
      <point x="620.656373346" y="-18"/>
      <point x="516.656373346" y="-18" type="curve" smooth="yes"/>
      <point x="307.656373346" y="-18"/>
      <point x="210.656373346" y="158"/>
      <point x="210.656373346" y="352" type="curve" smooth="yes"/>
      <point x="210.656373346" y="588"/>
      <point x="354.656373346" y="850"/>
      <point x="613.656373346" y="850" type="curve" smooth="yes"/>
      <point x="737.656373346" y="850"/>
      <point x="857.656373346" y="766"/>
      <point x="886.656373346" y="598" type="curve"/>
      <point x="925.656373346" y="828" type="line"/>
      <point x="1009.65637335" y="828" type="line"/>
      <point x="789.656373346" y="-268" type="line"/>
      <point x="957.656373346" y="-268" type="line"/>
      <point x="945.656373346" y="-329" type="line"/>
    </contour>
    <contour>
      <point x="283.656373346" y="342" type="curve" smooth="yes"/>
      <point x="283.656373346" y="183"/>
      <point x="354.656373346" y="43"/>
      <point x="512.656373346" y="43" type="curve" smooth="yes"/>
      <point x="714.82165941" y="43.0"/>
      <point x="836.394655826" y="247.108733565"/>
      <point x="851.13870673" y="442.153371805" type="curve" smooth="yes"/>
      <point x="852.147681765" y="455.50080067"/>
      <point x="852.656373346" y="468.80578208"/>
      <point x="852.656373346" y="482" type="curve" smooth="yes"/>
      <point x="852.656373346" y="644"/>
      <point x="777.656373346" y="788"/>
      <point x="611.656373346" y="788" type="curve" smooth="yes"/>
      <point x="404.656373346" y="788"/>
      <point x="283.656373346" y="549"/>
    </contour>
  </outline>
</glyph>
<glyph name="r" format="1">
  <advance width="736.548587197"/>
  <unicode hex="0072"/>
  <outline>
    <contour>
      <point x="404.470556786" y="669" type="line"/>
      <point x="470.470556786" y="782"/>
      <point x="571.470556786" y="851"/>
      <point x="684.470556786" y="851" type="curve" smooth="yes"/>
      <point x="749.470556786" y="851"/>
      <point x="762.470556786" y="821"/>
      <point x="762.470556786" y="748" type="curve" smooth="yes"/>
      <point x="762.470556786" y="666" type="line"/>
      <point x="693.470556786" y="653" type="line"/>
      <point x="693.470556786" y="774"/>
      <point x="696.470556786" y="789"/>
      <point x="665.470556786" y="789" type="curve" smooth="yes"/>
      <point x="574.470556786" y="789"/>
      <point x="420.470556786" y="686"/>
      <point x="378.470556786" y="469" type="curve" smooth="yes"/>
      <point x="286.470556786" y="0" type="line"/>
      <point x="200.470556786" y="0" type="line"/>
      <point x="352.470556786" y="770" type="line"/>
      <point x="190.470556786" y="770" type="line"/>
      <point x="202.470556786" y="828" type="line"/>
      <point x="445.470556786" y="828" type="line"/>
    </contour>
  </outline>
</glyph>
<glyph name="s" format="1">
  <advance width="761.745378492"/>
  <unicode hex="0073"/>
  <outline>
    <contour>
      <point x="676.422007586" y="199" type="curve" smooth="yes"/>
      <point x="676.422007586" y="60"/>
      <point x="548.422007586" y="-18"/>
      <point x="397.422007586" y="-18" type="curve" smooth="yes"/>
      <point x="300.422007586" y="-18"/>
      <point x="188.422007586" y="28"/>
      <point x="188.422007586" y="91" type="curve" smooth="yes"/>
      <point x="188.422007586" y="92"/>
      <point x="189.422007586" y="94"/>
      <point x="203.422007586" y="202" type="curve"/>
      <point x="276.422007586" y="214" type="line"/>
      <point x="262.422007586" y="112"/>
      <point x="260.422007586" y="110"/>
      <point x="260.422007586" y="108" type="curve" smooth="yes"/>
      <point x="260.422007586" y="64"/>
      <point x="334.422007586" y="43"/>
      <point x="416.422007586" y="43" type="curve" smooth="yes"/>
      <point x="503.422007586" y="43"/>
      <point x="590.422007586" y="87"/>
      <point x="590.422007586" y="204" type="curve" smooth="yes"/>
      <point x="590.422007586" y="299.0"/>
      <point x="512.172007586" y="354.25"/>
      <point x="433.922007586" y="411.125" type="curve" smooth="yes"/>
      <point x="355.672007586" y="468.0"/>
      <point x="277.422007586" y="526.5"/>
      <point x="277.422007586" y="628" type="curve" smooth="yes"/>
      <point x="277.422007586" y="771"/>
      <point x="390.422007586" y="851"/>
      <point x="525.422007586" y="851" type="curve" smooth="yes"/>
      <point x="620.422007586" y="851"/>
      <point x="725.422007586" y="810"/>
      <point x="719.422007586" y="761" type="curve" smooth="yes"/>
      <point x="705.422007586" y="652" type="line"/>
      <point x="634.422007586" y="633" type="line"/>
      <point x="646.422007586" y="753" type="line" smooth="yes"/>
      <point x="647.422007586" y="764"/>
      <point x="593.422007586" y="792"/>
      <point x="522.422007586" y="792" type="curve" smooth="yes"/>
      <point x="426.422007586" y="792"/>
      <point x="359.422007586" y="733"/>
      <point x="359.422007586" y="635" type="curve" smooth="yes"/>
      <point x="359.422007586" y="550.0"/>
      <point x="438.672007586" y="498.0"/>
      <point x="517.922007586" y="438.75" type="curve" smooth="yes"/>
      <point x="597.172007586" y="379.5"/>
      <point x="676.422007586" y="313.0"/>
    </contour>
  </outline>
</glyph>
<glyph name="t" format="1">
  <advance width="628.698045679"/>
  <unicode hex="0074"/>
  <outline>
    <contour>
      <point x="183.45933421" y="770" type="line"/>
      <point x="198.45933421" y="828" type="line"/>
      <point x="360.45933421" y="828" type="line"/>
      <point x="426.45933421" y="1141" type="line"/>
      <point x="517.45933421" y="1177" type="line"/>
      <point x="443.45933421" y="828" type="line"/>
      <point x="616.45933421" y="828" type="line"/>
      <point x="600.45933421" y="770" type="line"/>
      <point x="432.45933421" y="770" type="line"/>
      <point x="315.45933421" y="210" type="line" smooth="yes"/>
      <point x="300.126000877" y="146.111111111"/>
      <point x="288.316477067" y="52.0"/>
      <point x="370.45933421" y="52" type="curve" smooth="yes"/>
      <point x="437.45933421" y="52"/>
      <point x="471.45933421" y="135"/>
      <point x="495.45933421" y="213" type="curve"/>
      <point x="549.45933421" y="192" type="line"/>
      <point x="516.45933421" y="65"/>
      <point x="457.45933421" y="-9"/>
      <point x="360.45933421" y="-9" type="curve" smooth="yes"/>
      <point x="246.080023865" y="-9.0"/>
      <point x="203.70933421" y="95.65"/>
      <point x="230.45933421" y="208" type="curve" smooth="yes"/>
      <point x="347.45933421" y="770" type="line"/>
    </contour>
  </outline>
</glyph>
<glyph name="u" format="1">
  <advance width="1056.52640586"/>
  <unicode hex="0075"/>
  <outline>
    <contour>
      <point x="882.45933421" y="828" type="line"/>
      <point x="790.45933421" y="363" type="line" smooth="yes"/>
      <point x="747.45933421" y="145"/>
      <point x="583.45933421" y="43"/>
      <point x="475.45933421" y="43" type="curve" smooth="yes"/>
      <point x="350.45933421" y="43"/>
      <point x="306.45933421" y="120"/>
      <point x="340.45933421" y="285" type="curve" smooth="yes"/>
      <point x="340.45933421" y="285"/>
      <point x="442.45933421" y="828"/>
      <point x="442.45933421" y="828" type="curve"/>
      <point x="200.45933421" y="828" type="line"/>
      <point x="186.45933421" y="770" type="line"/>
      <point x="349.45933421" y="770" type="line"/>
      <point x="255.45933421" y="286" type="line" smooth="yes"/>
      <point x="216.45933421" y="89"/>
      <point x="286.45933421" y="-19"/>
      <point x="462.45933421" y="-19" type="curve" smooth="yes"/>
      <point x="583.45933421" y="-19"/>
      <point x="691.45933421" y="40"/>
      <point x="760.45933421" y="164" type="curve"/>
      <point x="742.45933421" y="51"/>
      <point x="793.45933421" y="-8"/>
      <point x="879.45933421" y="-8" type="curve" smooth="yes"/>
      <point x="979.45933421" y="-8"/>
      <point x="1035.45933421" y="63"/>
      <point x="1072.45933421" y="188" type="curve"/>
      <point x="1013.45933421" y="210" type="line"/>
      <point x="994.45933421" y="134"/>
      <point x="956.45933421" y="52"/>
      <point x="889.45933421" y="52" type="curve" smooth="yes"/>
      <point x="801.45933421" y="52"/>
      <point x="835.45933421" y="165"/>
      <point x="842.45933421" y="202" type="curve" smooth="yes"/>
      <point x="964.45933421" y="828" type="line"/>
    </contour>
  </outline>
</glyph>
<glyph name="v" format="1">
  <advance width="951.106867563"/>
  <unicode hex="0076"/>
  <outline>
    <contour>
      <point x="318.470556786" y="771" type="line"/>
      <point x="168.470556786" y="771" type="line"/>
      <point x="179.470556786" y="828" type="line"/>
      <point x="388.470556786" y="828" type="line"/>
      <point x="482.470556786" y="60" type="line"/>
      <point x="720.470556786" y="427" type="line" smooth="yes"/>
      <point x="829.470556786" y="594"/>
      <point x="857.470556786" y="688"/>
      <point x="857.470556786" y="752" type="curve" smooth="yes"/>
      <point x="857.470556786" y="790"/>
      <point x="848.470556786" y="813"/>
      <point x="840.470556786" y="828" type="curve"/>
      <point x="922.470556786" y="828" type="line"/>
      <point x="935.470556786" y="815"/>
      <point x="945.470556786" y="764"/>
      <point x="945.470556786" y="738" type="curve" smooth="yes"/>
      <point x="945.470556786" y="651"/>
      <point x="887.470556786" y="551"/>
      <point x="775.470556786" y="385" type="curve" smooth="yes"/>
      <point x="530.470556786" y="21" type="line"/>
      <point x="509.470556786" y="-7"/>
      <point x="476.470556786" y="-19"/>
      <point x="458.470556786" y="-19" type="curve" smooth="yes"/>
      <point x="434.470556786" y="-19"/>
      <point x="417.470556786" y="-3"/>
      <point x="414.470556786" y="23" type="curve" smooth="yes"/>
    </contour>
  </outline>
</glyph>
<glyph name="w" format="1">
  <advance width="1413.41824006"/>
  <unicode hex="0077"/>
  <outline>
    <contour>
      <point x="303.666424254" y="771" type="line"/>
      <point x="152.666424254" y="771" type="line"/>
      <point x="164.666424254" y="828" type="line"/>
      <point x="373.666424254" y="828" type="line"/>
      <point x="426.666424254" y="60" type="line"/>
      <point x="851.666424254" y="828" type="line"/>
      <point x="901.666424254" y="828" type="line"/>
      <point x="963.666424254" y="60" type="line"/>
      <point x="1202.66642425" y="457" type="line"/>
      <point x="1263.66642425" y="554"/>
      <point x="1319.66642425" y="667"/>
      <point x="1319.66642425" y="774" type="curve" smooth="yes"/>
      <point x="1319.66642425" y="797"/>
      <point x="1315.66642425" y="819"/>
      <point x="1310.66642425" y="840" type="curve"/>
      <point x="1352.66642425" y="840" type="line" smooth="yes"/>
      <point x="1406.66642425" y="840"/>
      <point x="1411.66642425" y="786"/>
      <point x="1411.66642425" y="760" type="curve" smooth="yes"/>
      <point x="1411.66642425" y="673"/>
      <point x="1363.66642425" y="585"/>
      <point x="1257.66642425" y="415" type="curve" smooth="yes"/>
      <point x="1011.66642425" y="21" type="line"/>
      <point x="989.666424254" y="-7"/>
      <point x="957.666424254" y="-19"/>
      <point x="938.666424254" y="-19" type="curve" smooth="yes"/>
      <point x="915.666424254" y="-19"/>
      <point x="896.666424254" y="-3"/>
      <point x="894.666424254" y="23" type="curve" smooth="yes"/>
      <point x="839.666424254" y="660" type="line"/>
      <point x="473.666424254" y="21" type="line"/>
      <point x="452.666424254" y="-7"/>
      <point x="419.666424254" y="-19"/>
      <point x="401.666424254" y="-19" type="curve" smooth="yes"/>
      <point x="378.666424254" y="-19"/>
      <point x="358.666424254" y="-3"/>
      <point x="357.666424254" y="23" type="curve" smooth="yes"/>
    </contour>
  </outline>
</glyph>
<glyph name="x" format="1">
  <advance width="1059.23276598"/>
  <unicode hex="0078"/>
  <outline>
    <contour>
      <point x="534.257855453" y="715" type="curve" smooth="yes"/>
      <point x="617.257855453" y="504" type="line"/>
      <point x="775.257855453" y="744" type="line" smooth="yes"/>
      <point x="808.257855453" y="795"/>
      <point x="860.257855453" y="835"/>
      <point x="919.257855453" y="835" type="curve" smooth="yes"/>
      <point x="960.257855453" y="835"/>
      <point x="1006.25785545" y="816"/>
      <point x="1051.25785545" y="767" type="curve"/>
      <point x="1004.25785545" y="710" type="line"/>
      <point x="976.257855453" y="747"/>
      <point x="948.257855453" y="767"/>
      <point x="918.257855453" y="767" type="curve" smooth="yes"/>
      <point x="886.257855453" y="767"/>
      <point x="853.257855453" y="741"/>
      <point x="818.257855453" y="687" type="curve" smooth="yes"/>
      <point x="647.257855453" y="428" type="line"/>
      <point x="774.257855453" y="109" type="line" smooth="yes"/>
      <point x="791.257855453" y="66"/>
      <point x="816.257855453" y="49"/>
      <point x="843.257855453" y="49" type="curve" smooth="yes"/>
      <point x="886.257855453" y="49"/>
      <point x="930.257855453" y="94"/>
      <point x="947.257855453" y="171" type="curve"/>
      <point x="1007.25785545" y="159" type="line"/>
      <point x="999.257855453" y="49"/>
      <point x="912.257855453" y="-15"/>
      <point x="833.257855453" y="-15" type="curve" smooth="yes"/>
      <point x="780.257855453" y="-15"/>
      <point x="733.257855453" y="11"/>
      <point x="709.257855453" y="72" type="curve" smooth="yes"/>
      <point x="597.257855453" y="353" type="line"/>
      <point x="411.257855453" y="69" type="line" smooth="yes"/>
      <point x="377.257855453" y="18"/>
      <point x="320.257855453" y="-17"/>
      <point x="266.257855453" y="-17" type="curve" smooth="yes"/>
      <point x="225.257855453" y="-17"/>
      <point x="179.257855453" y="2"/>
      <point x="134.257855453" y="51" type="curve"/>
      <point x="180.257855453" y="108" type="line"/>
      <point x="210.257855453" y="70"/>
      <point x="237.257855453" y="51"/>
      <point x="267.257855453" y="51" type="curve" smooth="yes"/>
      <point x="299.257855453" y="51"/>
      <point x="333.257855453" y="71"/>
      <point x="369.257855453" y="125" type="curve" smooth="yes"/>
      <point x="567.257855453" y="427" type="line"/>
      <point x="470.257855453" y="670" type="line"/>
      <point x="442.257855453" y="737"/>
      <point x="414.257855453" y="769"/>
      <point x="376.257855453" y="769" type="curve" smooth="yes"/>
      <point x="348.257855453" y="769"/>
      <point x="322.257855453" y="758"/>
      <point x="291.257855453" y="731" type="curve"/>
      <point x="260.257855453" y="798" type="line"/>
      <point x="306.257855453" y="826"/>
      <point x="348.257855453" y="837"/>
      <point x="386.257855453" y="837" type="curve" smooth="yes"/>
      <point x="463.257855453" y="837"/>
      <point x="506.257855453" y="784"/>
    </contour>
  </outline>
</glyph>
<glyph name="y" format="1">
  <advance width="1029.33691024"/>
  <unicode hex="0079"/>
  <outline>
    <contour>
      <point x="765.45933421" y="51" type="curve"/>
      <point x="791.45933421" y="155" type="line"/>
      <point x="722.45933421" y="45"/>
      <point x="617.45933421" y="-19"/>
      <point x="497.45933421" y="-19" type="curve" smooth="yes"/>
      <point x="320.50620921" y="-19.0"/>
      <point x="251.068029862" y="95.6086956522"/>
      <point x="290.45933421" y="286" type="curve" smooth="yes"/>
      <point x="385.45933421" y="770" type="line"/>
      <point x="222.45933421" y="770" type="line"/>
      <point x="236.45933421" y="828" type="line"/>
      <point x="477.45933421" y="828" type="line"/>
      <point x="370" y="283" type="line" smooth="yes"/>
      <point x="345" y="154"/>
      <point x="365.286920417" y="43.0"/>
      <point x="509.45933421" y="43" type="curve" smooth="yes"/>
      <point x="617.45933421" y="43"/>
      <point x="780.45933421" y="145"/>
      <point x="824.45933421" y="363" type="curve" smooth="yes"/>
      <point x="916.45933421" y="828" type="line"/>
      <point x="1000.45933421" y="828" type="line"/>
      <point x="846.45933421" y="49" type="line" smooth="yes"/>
      <point x="794.45933421" y="-212"/>
      <point x="649.45933421" y="-312"/>
      <point x="452.45933421" y="-312" type="curve" smooth="yes"/>
      <point x="356.45933421" y="-312"/>
      <point x="268.45933421" y="-285"/>
      <point x="198.45933421" y="-225" type="curve"/>
      <point x="235.45933421" y="-174" type="line"/>
      <point x="284.45933421" y="-219"/>
      <point x="359.45933421" y="-251"/>
      <point x="452.45933421" y="-251" type="curve" smooth="yes"/>
      <point x="620.45933421" y="-251"/>
      <point x="710.45933421" y="-179"/>
    </contour>
  </outline>
</glyph>
<glyph name="z" format="1">
  <advance width="883.60388413"/>
  <unicode hex="007A"/>
  <outline>
    <contour>
      <point x="746.472339278" y="0" type="curve"/>
      <point x="197.472339278" y="0" type="line" smooth="yes"/>
      <point x="183.472339278" y="0"/>
      <point x="179.472339278" y="15"/>
      <point x="177.472339278" y="29" type="curve"/>
      <point x="769.472339278" y="770" type="line"/>
      <point x="407.472339278" y="770" type="line"/>
      <point x="322.472339278" y="640" type="line"/>
      <point x="253.472339278" y="659" type="line"/>
      <point x="348.472339278" y="828" type="line"/>
      <point x="857.472339278" y="828" type="line"/>
      <point x="857.472339278" y="828"/>
      <point x="865.472339278" y="771"/>
      <point x="865.472339278" y="771" type="curve" smooth="yes"/>
      <point x="866.472339278" y="770"/>
      <point x="291" y="58"/>
      <point x="291" y="58" type="curve"/>
      <point x="704.472339278" y="58" type="line"/>
      <point x="718.472339278" y="84"/>
      <point x="732.472339278" y="124"/>
      <point x="746.472339278" y="206" type="curve"/>
      <point x="806.472339278" y="184" type="line"/>
      <point x="794.472339278" y="91"/>
      <point x="778.472339278" y="33"/>
    </contour>
  </outline>
</glyph>
<glyph name="sterling" format="1">
  <advance width="1069"/>
  <unicode hex="00A3"/>
  <outline>
    <contour>
      <point x="381" y="635" type="line"/>
      <point x="355" y="719"/>
      <point x="325" y="810"/>
      <point x="325" y="899" type="curve" smooth="yes"/>
      <point x="325" y="1157"/>
      <point x="528" y="1306"/>
      <point x="768" y="1306" type="curve" smooth="yes"/>
      <point x="950" y="1306"/>
      <point x="1044" y="1225"/>
      <point x="1044" y="1086" type="curve" smooth="yes"/>
      <point x="1044" y="1062"/>
      <point x="1041" y="1035"/>
      <point x="1034" y="1007" type="curve"/>
      <point x="955" y="1007" type="line"/>
      <point x="961" y="1031"/>
      <point x="964" y="1054"/>
      <point x="964" y="1076" type="curve" smooth="yes"/>
      <point x="964" y="1173"/>
      <point x="907" y="1237"/>
      <point x="761" y="1237" type="curve" smooth="yes"/>
      <point x="556" y="1237"/>
      <point x="418" y="1126"/>
      <point x="418" y="914" type="curve" smooth="yes"/>
      <point x="418" y="819"/>
      <point x="455" y="736"/>
      <point x="485" y="635" type="curve"/>
      <point x="875" y="635" type="line"/>
      <point x="865" y="584" type="line"/>
      <point x="492" y="584" type="line"/>
      <point x="497" y="545"/>
      <point x="500" y="508"/>
      <point x="500" y="470" type="curve" smooth="yes"/>
      <point x="500" y="368"/>
      <point x="478" y="265"/>
      <point x="422" y="162" type="curve"/>
      <point x="468" y="82"/>
      <point x="551" y="46"/>
      <point x="645" y="46" type="curve" smooth="yes"/>
      <point x="793" y="46"/>
      <point x="860" y="154"/>
      <point x="885" y="272" type="curve"/>
      <point x="937" y="272" type="line"/>
      <point x="925" y="105"/>
      <point x="808" y="-31"/>
      <point x="633" y="-31" type="curve" smooth="yes"/>
      <point x="532" y="-31"/>
      <point x="447" y="12"/>
      <point x="394" y="111" type="curve"/>
      <point x="302" y="-34"/>
      <point x="135" y="-49"/>
      <point x="86" y="-49" type="curve" smooth="yes"/>
      <point x="-49" y="-49"/>
      <point x="-104" y="11"/>
      <point x="-104" y="88" type="curve" smooth="yes"/>
      <point x="-104" y="244"/>
      <point x="51" y="312"/>
      <point x="166" y="312" type="curve" smooth="yes"/>
      <point x="254" y="312"/>
      <point x="336" y="275"/>
      <point x="368" y="212" type="curve"/>
      <point x="400" y="289"/>
      <point x="413" y="365"/>
      <point x="413" y="438" type="curve" smooth="yes"/>
      <point x="413" y="489"/>
      <point x="407" y="538"/>
      <point x="397" y="584" type="curve"/>
      <point x="139" y="584" type="line"/>
      <point x="149" y="635" type="line"/>
    </contour>
    <contour>
      <point x="342" y="160" type="curve"/>
      <point x="306" y="219"/>
      <point x="234" y="254"/>
      <point x="158" y="254" type="curve" smooth="yes"/>
      <point x="75" y="254"/>
      <point x="-29" y="208"/>
      <point x="-29" y="98" type="curve" smooth="yes"/>
      <point x="-29" y="35"/>
      <point x="28" y="7"/>
      <point x="92" y="7" type="curve" smooth="yes"/>
      <point x="185" y="7"/>
      <point x="296" y="57"/>
    </contour>
  </outline>
</glyph>
<glyph name="section" format="1">
  <advance width="971"/>
  <unicode hex="00A7"/>
  <outline>
    <contour>
      <point x="838" y="644" type="curve" smooth="yes"/>
      <point x="838" y="629"/>
      <point x="837" y="612"/>
      <point x="833" y="594" type="curve" smooth="yes"/>
      <point x="817" y="520"/>
      <point x="761" y="460"/>
      <point x="689" y="423" type="curve"/>
      <point x="733" y="395"/>
      <point x="758" y="349"/>
      <point x="758" y="297" type="curve" smooth="yes"/>
      <point x="758" y="177"/>
      <point x="641" y="39"/>
      <point x="365" y="39" type="curve" smooth="yes"/>
      <point x="250" y="39"/>
      <point x="144" y="68"/>
      <point x="95" y="130" type="curve"/>
      <point x="81" y="54" type="line"/>
      <point x="8" y="54" type="line"/>
      <point x="60" y="295" type="line"/>
      <point x="132" y="295" type="line"/>
      <point x="116" y="228" type="line"/>
      <point x="139" y="149"/>
      <point x="264" y="108"/>
      <point x="386" y="108" type="curve" smooth="yes"/>
      <point x="580" y="108"/>
      <point x="676" y="203"/>
      <point x="676" y="286" type="curve" smooth="yes"/>
      <point x="676" y="484"/>
      <point x="133" y="347"/>
      <point x="133" y="593" type="curve" smooth="yes"/>
      <point x="133" y="694"/>
      <point x="200" y="774"/>
      <point x="284" y="814" type="curve"/>
      <point x="236" y="841"/>
      <point x="205" y="877"/>
      <point x="205" y="936" type="curve" smooth="yes"/>
      <point x="205" y="1112"/>
      <point x="393" y="1187"/>
      <point x="563" y="1187" type="curve" smooth="yes"/>
      <point x="663" y="1187"/>
      <point x="759" y="1165"/>
      <point x="811" y="1107" type="curve"/>
      <point x="823" y="1169" type="line"/>
      <point x="896" y="1169" type="line"/>
      <point x="846" y="932" type="line"/>
      <point x="773" y="932" type="line"/>
      <point x="792" y="1023" type="line"/>
      <point x="757" y="1085"/>
      <point x="664" y="1117"/>
      <point x="568" y="1117" type="curve" smooth="yes"/>
      <point x="431" y="1117"/>
      <point x="294" y="1070"/>
      <point x="294" y="957" type="curve" smooth="yes"/>
      <point x="294" y="760"/>
      <point x="838" y="909"/>
    </contour>
    <contour>
      <point x="638" y="457" type="curve"/>
      <point x="695" y="479"/>
      <point x="736" y="530"/>
      <point x="749" y="592" type="curve" smooth="yes"/>
      <point x="751" y="603"/>
      <point x="752" y="612"/>
      <point x="752" y="620" type="curve" smooth="yes"/>
      <point x="752" y="764"/>
      <point x="477" y="745"/>
      <point x="345" y="788" type="curve"/>
      <point x="291" y="769"/>
      <point x="219" y="702"/>
      <point x="219" y="613" type="curve" smooth="yes"/>
      <point x="219" y="483"/>
      <point x="466" y="498"/>
    </contour>
  </outline>
</glyph>
<glyph name="dieresis" format="1">
  <advance width="655"/>
  <unicode hex="00A8"/>
  <outline>
    <contour>
      <point x="439" y="1088" type="line"/>
      <point x="543" y="1088" type="line"/>
      <point x="518" y="977" type="line"/>
      <point x="414" y="977" type="line"/>
    </contour>
    <contour>
      <point x="187" y="1088" type="line"/>
      <point x="291" y="1088" type="line"/>
      <point x="266" y="977" type="line"/>
      <point x="162" y="977" type="line"/>
    </contour>
  </outline>
</glyph>
<glyph name="copyright" format="1">
  <advance width="1473"/>
  <unicode hex="00A9"/>
  <outline>
    <contour>
      <point x="1001" y="800" type="curve" smooth="yes"/>
      <point x="1001" y="873"/>
      <point x="958" y="947"/>
      <point x="800" y="947" type="curve" smooth="yes"/>
      <point x="635" y="947"/>
      <point x="413" y="806"/>
      <point x="413" y="555" type="curve" smooth="yes"/>
      <point x="413" y="408"/>
      <point x="526" y="317"/>
      <point x="665" y="317" type="curve" smooth="yes"/>
      <point x="775" y="317"/>
      <point x="902" y="367"/>
      <point x="997" y="466" type="curve"/>
      <point x="1005" y="395" type="line"/>
      <point x="883" y="294"/>
      <point x="756" y="251"/>
      <point x="649" y="251" type="curve" smooth="yes"/>
      <point x="471" y="251"/>
      <point x="334" y="366"/>
      <point x="334" y="545" type="curve" smooth="yes"/>
      <point x="334" y="819"/>
      <point x="560" y="1011"/>
      <point x="813" y="1011" type="curve" smooth="yes"/>
      <point x="924" y="1011"/>
      <point x="998" y="974"/>
      <point x="1020" y="931" type="curve"/>
      <point x="1038" y="1017" type="line"/>
      <point x="1112" y="1017" type="line"/>
      <point x="1063" y="784" type="line"/>
      <point x="999" y="784" type="line"/>
      <point x="999" y="789"/>
      <point x="1001" y="795"/>
    </contour>
    <contour>
      <point x="1342" y="779" type="curve" smooth="yes"/>
      <point x="1342" y="1028"/>
      <point x="1191" y="1247"/>
      <point x="861" y="1247" type="curve" smooth="yes"/>
      <point x="396" y="1247"/>
      <point x="124" y="827"/>
      <point x="124" y="491" type="curve" smooth="yes"/>
      <point x="124" y="242"/>
      <point x="271" y="36"/>
      <point x="604" y="36" type="curve" smooth="yes"/>
      <point x="1056" y="36"/>
      <point x="1342" y="442"/>
    </contour>
    <contour>
      <point x="1417" y="796" type="curve" smooth="yes"/>
      <point x="1417" y="419"/>
      <point x="1108" y="-23"/>
      <point x="592" y="-23" type="curve" smooth="yes"/>
      <point x="216" y="-23"/>
      <point x="47" y="213"/>
      <point x="47" y="488" type="curve" smooth="yes"/>
      <point x="47" y="865"/>
      <point x="364" y="1309"/>
      <point x="874" y="1309" type="curve" smooth="yes"/>
      <point x="1249" y="1309"/>
      <point x="1417" y="1071"/>
    </contour>
  </outline>
</glyph>
<glyph name="ordfeminine" format="1">
  <advance width="821"/>
  <unicode hex="00AA"/>
  <outline>
    <contour>
      <point x="315" y="667" type="curve" smooth="yes"/>
      <point x="190" y="667"/>
      <point x="135" y="731"/>
      <point x="135" y="812" type="curve" smooth="yes"/>
      <point x="135" y="1008"/>
      <point x="316" y="1036"/>
      <point x="447" y="1036" type="curve" smooth="yes"/>
      <point x="499" y="1036"/>
      <point x="548" y="1028"/>
      <point x="599" y="1018" type="curve"/>
      <point x="617" y="1098" type="line" smooth="yes"/>
      <point x="621" y="1114"/>
      <point x="623" y="1129"/>
      <point x="623" y="1142" type="curve" smooth="yes"/>
      <point x="623" y="1215"/>
      <point x="571" y="1240"/>
      <point x="486" y="1240" type="curve" smooth="yes"/>
      <point x="398" y="1240"/>
      <point x="326" y="1216"/>
      <point x="270" y="1168" type="curve"/>
      <point x="245" y="1229" type="line"/>
      <point x="316" y="1285"/>
      <point x="401" y="1306"/>
      <point x="500" y="1306" type="curve" smooth="yes"/>
      <point x="660" y="1306"/>
      <point x="700" y="1230"/>
      <point x="700" y="1157" type="curve" smooth="yes"/>
      <point x="700" y="1141"/>
      <point x="698" y="1125"/>
      <point x="695" y="1110" type="curve" smooth="yes"/>
      <point x="616" y="738" type="line"/>
      <point x="727" y="738" type="line"/>
      <point x="714" y="676" type="line"/>
      <point x="539" y="676" type="line"/>
      <point x="542" y="736" type="line"/>
      <point x="469" y="693"/>
      <point x="395" y="667"/>
    </contour>
    <contour>
      <point x="586" y="954" type="line"/>
      <point x="564" y="959"/>
      <point x="498" y="969"/>
      <point x="440" y="969" type="curve" smooth="yes"/>
      <point x="356" y="969"/>
      <point x="214" y="967"/>
      <point x="214" y="826" type="curve" smooth="yes"/>
      <point x="214" y="779"/>
      <point x="243" y="734"/>
      <point x="336" y="734" type="curve" smooth="yes"/>
      <point x="415" y="734"/>
      <point x="484" y="750"/>
      <point x="554" y="803" type="curve"/>
    </contour>
  </outline>
</glyph>
<glyph name="registered" format="1">
  <advance width="1473"/>
  <unicode hex="00AE"/>
  <outline>
    <contour>
      <point x="324" y="268" type="line"/>
      <point x="337" y="328" type="line"/>
      <point x="427" y="328" type="line"/>
      <point x="561" y="968" type="line"/>
      <point x="464" y="968" type="line"/>
      <point x="479" y="1028" type="line"/>
      <point x="871" y="1028" type="line" smooth="yes"/>
      <point x="999" y="1028"/>
      <point x="1056" y="952"/>
      <point x="1056" y="866" type="curve" smooth="yes"/>
      <point x="1056" y="756"/>
      <point x="963" y="623"/>
      <point x="804" y="614" type="curve"/>
      <point x="918" y="328" type="line"/>
      <point x="1024" y="328" type="line"/>
      <point x="1011" y="268" type="line"/>
      <point x="854" y="268" type="line"/>
      <point x="723" y="614" type="line"/>
      <point x="558" y="614" type="line"/>
      <point x="498" y="328" type="line"/>
      <point x="598" y="328" type="line"/>
      <point x="585" y="268" type="line"/>
    </contour>
    <contour>
      <point x="634" y="968" type="line"/>
      <point x="571" y="674" type="line"/>
      <point x="796" y="674" type="line" smooth="yes"/>
      <point x="913" y="674"/>
      <point x="986" y="770"/>
      <point x="986" y="850" type="curve" smooth="yes"/>
      <point x="986" y="914"/>
      <point x="947" y="968"/>
      <point x="858" y="968" type="curve" smooth="yes"/>
    </contour>
    <contour>
      <point x="1342" y="779" type="curve" smooth="yes"/>
      <point x="1342" y="1028"/>
      <point x="1191" y="1247"/>
      <point x="861" y="1247" type="curve" smooth="yes"/>
      <point x="396" y="1247"/>
      <point x="124" y="827"/>
      <point x="124" y="491" type="curve" smooth="yes"/>
      <point x="124" y="242"/>
      <point x="271" y="36"/>
      <point x="604" y="36" type="curve" smooth="yes"/>
      <point x="1056" y="36"/>
      <point x="1342" y="442"/>
    </contour>
    <contour>
      <point x="1417" y="796" type="curve" smooth="yes"/>
      <point x="1417" y="419"/>
      <point x="1108" y="-23"/>
      <point x="592" y="-23" type="curve" smooth="yes"/>
      <point x="216" y="-23"/>
      <point x="47" y="213"/>
      <point x="47" y="488" type="curve" smooth="yes"/>
      <point x="47" y="865"/>
      <point x="364" y="1309"/>
      <point x="874" y="1309" type="curve" smooth="yes"/>
      <point x="1249" y="1309"/>
      <point x="1417" y="1071"/>
    </contour>
  </outline>
</glyph>
<glyph name="periodcentered" format="1">
  <advance width="272"/>
  <unicode hex="00B7"/>
  <outline>
    <contour>
      <point x="89" y="848" type="line"/>
      <point x="210" y="848" type="line"/>
      <point x="184" y="723" type="line"/>
      <point x="61" y="723" type="line"/>
    </contour>
  </outline>
</glyph>
<glyph name="onesuperior" format="1">
  <advance width="573"/>
  <unicode hex="00B9"/>
  <outline>
    <contour>
      <point x="252" y="63" type="line"/>
      <point x="374" y="63" type="line"/>
      <point x="361" y="0" type="line"/>
      <point x="37" y="0" type="line"/>
      <point x="49" y="63" type="line"/>
      <point x="176" y="63" type="line"/>
      <point x="337" y="819" type="line"/>
      <point x="225" y="798" type="line"/>
      <point x="221" y="866" type="line"/>
      <point x="432" y="904" type="line"/>
    </contour>
  </outline>
</glyph>
<glyph name="AE" format="1">
  <advance width="2099"/>
  <unicode hex="00C6"/>
  <outline>
    <contour>
      <point x="2052" y="1211" type="line"/>
      <point x="1361" y="1211" type="line"/>
      <point x="1238" y="693" type="line"/>
      <point x="1688" y="693" type="line"/>
      <point x="1727" y="857" type="line"/>
      <point x="1797" y="857" type="line"/>
      <point x="1697" y="441" type="line"/>
      <point x="1627" y="441" type="line"/>
      <point x="1669" y="620" type="line"/>
      <point x="1220" y="620" type="line"/>
      <point x="1089" y="72" type="line"/>
      <point x="1800" y="72" type="line"/>
      <point x="1876" y="392" type="line"/>
      <point x="1957" y="392" type="line"/>
      <point x="1864" y="0" type="line"/>
      <point x="795" y="0" type="line"/>
      <point x="834" y="64" type="line"/>
      <point x="998" y="64" type="line"/>
      <point x="1112" y="523" type="line"/>
      <point x="618" y="523" type="line"/>
      <point x="173" y="64" type="line"/>
      <point x="337" y="64" type="line"/>
      <point x="297" y="0" type="line"/>
      <point x="-121" y="0" type="line"/>
      <point x="-81" y="64" type="line"/>
      <point x="82" y="64" type="line"/>
      <point x="1220" y="1218" type="line"/>
      <point x="1056" y="1218" type="line"/>
      <point x="1097" y="1284" type="line"/>
      <point x="2149" y="1284" type="line"/>
      <point x="2055" y="892" type="line"/>
      <point x="1974" y="892" type="line"/>
    </contour>
    <contour>
      <point x="1281" y="1200" type="line"/>
      <point x="679" y="586" type="line"/>
      <point x="1127" y="586" type="line"/>
    </contour>
  </outline>
</glyph>
<glyph name="Thorn" format="1">
  <advance width="1116"/>
  <unicode hex="00DE"/>
  <outline>
    <contour>
      <point x="449" y="1218" type="line"/>
      <point x="420" y="1084" type="line"/>
      <point x="835" y="1084" type="line" smooth="yes"/>
      <point x="1039" y="1084"/>
      <point x="1127" y="969"/>
      <point x="1127" y="837" type="curve" smooth="yes"/>
      <point x="1127" y="657"/>
      <point x="958" y="438"/>
      <point x="698" y="438" type="curve" smooth="yes"/>
      <point x="284" y="438" type="line"/>
      <point x="204" y="64" type="line"/>
      <point x="381" y="64" type="line"/>
      <point x="367" y="0" type="line"/>
      <point x="-53" y="0" type="line"/>
      <point x="-40" y="64" type="line"/>
      <point x="120" y="64" type="line"/>
      <point x="364" y="1218" type="line"/>
      <point x="207" y="1218" type="line"/>
      <point x="222" y="1284" type="line"/>
      <point x="624" y="1284" type="line"/>
      <point x="610" y="1218" type="line"/>
    </contour>
    <contour>
      <point x="407" y="1019" type="line"/>
      <point x="298" y="506" type="line"/>
      <point x="712" y="506" type="line" smooth="yes"/>
      <point x="912" y="506"/>
      <point x="1044" y="680"/>
      <point x="1044" y="826" type="curve" smooth="yes"/>
      <point x="1044" y="930"/>
      <point x="975" y="1019"/>
      <point x="821" y="1019" type="curve" smooth="yes"/>
    </contour>
  </outline>
</glyph>
<glyph name="thorn" format="1">
  <advance width="1120"/>
  <unicode hex="00FE"/>
  <outline>
    <contour>
      <point x="171" y="1284" type="line"/>
      <point x="409" y="1284" type="line"/>
      <point x="289" y="723" type="line"/>
      <point x="387" y="816"/>
      <point x="542" y="888"/>
      <point x="698" y="888" type="curve" smooth="yes"/>
      <point x="953" y="888"/>
      <point x="1072" y="728"/>
      <point x="1072" y="544" type="curve" smooth="yes"/>
      <point x="1072" y="343"/>
      <point x="897" y="-14"/>
      <point x="510" y="-14" type="curve" smooth="yes"/>
      <point x="338" y="-14"/>
      <point x="201" y="75"/>
      <point x="163" y="130" type="curve"/>
      <point x="53" y="-374" type="line"/>
      <point x="-197" y="-374" type="line"/>
      <point x="-184" y="-312" type="line"/>
      <point x="-12" y="-312" type="line"/>
      <point x="313" y="1221" type="line"/>
      <point x="158" y="1221" type="line"/>
    </contour>
    <contour>
      <point x="527" y="55" type="curve" smooth="yes"/>
      <point x="777" y="55"/>
      <point x="938" y="255"/>
      <point x="977" y="444" type="curve" smooth="yes"/>
      <point x="983" y="473"/>
      <point x="986" y="504"/>
      <point x="986" y="531" type="curve" smooth="yes"/>
      <point x="986" y="696"/>
      <point x="882" y="819"/>
      <point x="687" y="819" type="curve" smooth="yes"/>
      <point x="556" y="819"/>
      <point x="442" y="786"/>
      <point x="272" y="644" type="curve"/>
      <point x="179" y="201" type="line"/>
      <point x="305" y="86"/>
      <point x="401" y="55"/>
    </contour>
  </outline>
</glyph>
<glyph name="caron" format="1">
  <advance width="614"/>
  <unicode hex="02C7"/>
  <outline>
    <contour>
      <point x="186" y="1243" type="line"/>
      <point x="272" y="1243" type="line"/>
      <point x="331" y="1010" type="line"/>
      <point x="489" y="1243" type="line"/>
      <point x="582" y="1243" type="line"/>
      <point x="369" y="959" type="line"/>
      <point x="270" y="959" type="line"/>
    </contour>
  </outline>
</glyph>
<glyph name="ring" format="1">
  <advance width="473"/>
  <unicode hex="02DA"/>
  <outline>
    <contour>
      <point x="59.3037" y="343.422" type="curve" smooth="yes"/>
      <point x="145.057" y="343.422"/>
      <point x="190.755" y="413.379"/>
      <point x="190.755" y="478.972" type="curve" smooth="yes"/>
      <point x="190.755" y="537.391"/>
      <point x="157.529" y="592.38"/>
      <point x="87.4541" y="592.38" type="curve" smooth="yes"/>
      <point x="1.72776" y="592.38"/>
      <point x="-43.7783" y="522.558"/>
      <point x="-43.7783" y="457.017" type="curve" smooth="yes"/>
      <point x="-43.7783" y="398.53"/>
      <point x="-10.5553" y="343.422"/>
    </contour>
    <contour>
      <point x="92.626" y="635.769" type="curve" smooth="yes"/>
      <point x="194.546" y="635.769"/>
      <point x="241.178" y="566.312"/>
      <point x="241.178" y="490.591" type="curve" smooth="yes"/>
      <point x="241.178" y="399.856"/>
      <point x="174.221" y="300.126"/>
      <point x="55.2021" y="300.126" type="curve" smooth="yes"/>
      <point x="-47.9686" y="300.126"/>
      <point x="-95.0997" y="369.576"/>
      <point x="-95.0997" y="445.293" type="curve" smooth="yes"/>
      <point x="-95.0997" y="536.03"/>
      <point x="-27.4139" y="635.769"/>
    </contour>
  </outline>
</glyph>
<glyph name="uni030F" format="1">
  <advance width="633"/>
  <unicode hex="030F"/>
  <outline>
    <contour>
      <point x="322" y="1025" type="line"/>
      <point x="289" y="1025" type="line"/>
      <point x="184" y="1284" type="line"/>
      <point x="322" y="1284" type="line"/>
    </contour>
    <contour>
      <point x="540" y="1025" type="line"/>
      <point x="508" y="1025" type="line"/>
      <point x="403" y="1284" type="line"/>
      <point x="540" y="1284" type="line"/>
    </contour>
  </outline>
</glyph>
<glyph name="uni0311" format="1">
  <advance width="897"/>
  <unicode hex="0311"/>
  <outline>
    <contour>
      <point x="279" y="1124" type="curve"/>
      <point x="188" y="1124" type="line"/>
      <point x="228" y="1243"/>
      <point x="369" y="1323"/>
      <point x="543" y="1323" type="curve" smooth="yes"/>
      <point x="703" y="1323"/>
      <point x="803" y="1251"/>
      <point x="803" y="1142" type="curve" smooth="yes"/>
      <point x="803" y="1136"/>
      <point x="803" y="1130"/>
      <point x="802" y="1124" type="curve"/>
      <point x="720" y="1124" type="line"/>
      <point x="720" y="1218"/>
      <point x="652" y="1267"/>
      <point x="531" y="1267" type="curve" smooth="yes"/>
      <point x="405" y="1267"/>
      <point x="316" y="1218"/>
    </contour>
  </outline>
</glyph>
<glyph name="mu" format="1">
  <advance width="1190"/>
  <unicode hex="03BC"/>
  <outline>
    <contour>
      <point x="836" y="60" type="line"/>
      <point x="1016" y="60" type="line"/>
      <point x="1004" y="0" type="line"/>
      <point x="754" y="0" type="line"/>
      <point x="769" y="108" type="line"/>
      <point x="613" y="25"/>
      <point x="523" y="-14"/>
      <point x="393" y="-14" type="curve" smooth="yes"/>
      <point x="307" y="-14"/>
      <point x="250" y="7"/>
      <point x="214" y="42" type="curve"/>
      <point x="154" y="-242" type="line"/>
      <point x="70" y="-242" type="line"/>
      <point x="294" y="808" type="line"/>
      <point x="111" y="808" type="line"/>
      <point x="124" y="870" type="line"/>
      <point x="389" y="870" type="line"/>
      <point x="252" y="216" type="line" smooth="yes"/>
      <point x="249" y="203"/>
      <point x="249" y="190"/>
      <point x="249" y="176" type="curve" smooth="yes"/>
      <point x="249" y="105"/>
      <point x="285" y="55"/>
      <point x="415" y="55" type="curve" smooth="yes"/>
      <point x="550" y="55"/>
      <point x="660" y="114"/>
      <point x="779" y="180" type="curve"/>
      <point x="912" y="808" type="line"/>
      <point x="731" y="808" type="line"/>
      <point x="744" y="870" type="line"/>
      <point x="1008" y="870" type="line"/>
    </contour>
  </outline>
</glyph>
<glyph name="bullet" format="1">
  <advance width="758"/>
  <unicode hex="2022"/>
  <outline>
    <contour>
      <point x="127" y="652" type="curve" smooth="yes"/>
      <point x="127" y="810"/>
      <point x="278" y="941"/>
      <point x="433" y="941" type="curve" smooth="yes"/>
      <point x="554" y="941"/>
      <point x="638" y="861"/>
      <point x="638" y="750" type="curve" smooth="yes"/>
      <point x="638" y="595"/>
      <point x="484" y="460"/>
      <point x="330" y="460" type="curve" smooth="yes"/>
      <point x="209" y="460"/>
      <point x="127" y="542"/>
    </contour>
  </outline>
</glyph>
<glyph name="uniFB02" format="1">
  <advance width="1126"/>
  <unicode hex="FB02"/>
  <outline>
    <contour>
      <point x="714" y="208" type="curve" smooth="yes"/>
      <point x="919" y="1168" type="line"/>
      <point x="919" y="1210"/>
      <point x="854" y="1238"/>
      <point x="756" y="1238" type="curve" smooth="yes"/>
      <point x="612" y="1238"/>
      <point x="437" y="1168"/>
      <point x="402" y="1004" type="curve" smooth="yes"/>
      <point x="365" y="828" type="line"/>
      <point x="577" y="828" type="line"/>
      <point x="564" y="769" type="line"/>
      <point x="353" y="769" type="line"/>
      <point x="201" y="62" type="line"/>
      <point x="400" y="62" type="line"/>
      <point x="388" y="0" type="line"/>
      <point x="-55" y="0" type="line"/>
      <point x="-43" y="62" type="line"/>
      <point x="119" y="62" type="line"/>
      <point x="271" y="769" type="line"/>
      <point x="109" y="769" type="line"/>
      <point x="123" y="828" type="line"/>
      <point x="284" y="828" type="line"/>
      <point x="318" y="1001" type="line"/>
      <point x="361" y="1210"/>
      <point x="587" y="1304"/>
      <point x="771" y="1304" type="curve" smooth="yes"/>
      <point x="898" y="1304"/>
      <point x="1004" y="1264"/>
      <point x="1004" y="1186" type="curve" smooth="yes"/>
      <point x="1004" y="1180"/>
      <point x="1003" y="1175"/>
      <point x="1002" y="1168" type="curve" smooth="yes"/>
      <point x="799" y="210" type="line"/>
      <point x="788" y="185"/>
      <point x="788" y="156"/>
      <point x="788" y="129" type="curve" smooth="yes"/>
      <point x="788" y="87"/>
      <point x="804" y="52"/>
      <point x="854" y="52" type="curve" smooth="yes"/>
      <point x="921" y="52"/>
      <point x="955" y="135"/>
      <point x="978" y="213" type="curve"/>
      <point x="1033" y="192" type="line"/>
      <point x="999" y="65"/>
      <point x="942" y="-9"/>
      <point x="844" y="-9" type="curve" smooth="yes"/>
      <point x="751" y="-9"/>
      <point x="707" y="56"/>
      <point x="707" y="143" type="curve" smooth="yes"/>
      <point x="707" y="163"/>
      <point x="709" y="187"/>
    </contour>
  </outline>
</glyph>
<glyph name="a.alt" format="1">
  <advance width="1081.65987551"/>
  <outline>
    <contour>
      <point x="203.592803863" y="317.0" type="curve" smooth="yes"/>
      <point x="203.592803863" y="562.0"/>
      <point x="375.592803863" y="851.0"/>
      <point x="626.592803863" y="851.0" type="curve" smooth="yes"/>
      <point x="758.592803863" y="851.0"/>
      <point x="839.592803863" y="769.0"/>
      <point x="870.592803863" y="676.0" type="curve"/>
      <point x="902.592803863" y="828.0" type="line"/>
      <point x="991.592803863" y="828.0" type="line"/>
      <point x="860.592803863" y="163.0" type="line"/>
      <point x="856.592803863" y="150.0"/>
      <point x="854.592803863" y="138.0"/>
      <point x="854.592803863" y="123.0" type="curve" smooth="yes"/>
      <point x="854.592803863" y="88.0"/>
      <point x="867.592803863" y="52.0"/>
      <point x="914.592803863" y="52.0" type="curve" smooth="yes"/>
      <point x="968.592803863" y="52.0"/>
      <point x="1006.59280386" y="95.0"/>
      <point x="1039.59280386" y="210.0" type="curve"/>
      <point x="1097.59280386" y="188.0" type="line"/>
      <point x="1069.59280386" y="87.0"/>
      <point x="1014.59280386" y="-9.0"/>
      <point x="906.592803863" y="-9.0" type="curve" smooth="yes"/>
      <point x="830.592803863" y="-9.0"/>
      <point x="785.592803863" y="45.0"/>
      <point x="785.592803863" y="116.0" type="curve" smooth="yes"/>
      <point x="785.592803863" y="133.0"/>
      <point x="785.592803863" y="149.0"/>
      <point x="790.592803863" y="166.0" type="curve"/>
      <point x="780.592803863" y="143.0"/>
      <point x="703.592803863" y="-18.0"/>
      <point x="508.592803863" y="-18.0" type="curve" smooth="yes"/>
      <point x="293.592803863" y="-18.0"/>
      <point x="203.592803863" y="138.0"/>
    </contour>
    <contour>
      <point x="842.592803863" y="544.0" type="curve" smooth="yes"/>
      <point x="842.592803863" y="662.0"/>
      <point x="774.592803863" y="789.0"/>
      <point x="634.592803863" y="789.0" type="curve" smooth="yes"/>
      <point x="426.592803863" y="789.0"/>
      <point x="285.592803863" y="535.0"/>
      <point x="285.592803863" y="323.0" type="curve" smooth="yes"/>
      <point x="285.592803863" y="172.0"/>
      <point x="353.592803863" y="43.0"/>
      <point x="517.592803863" y="43.0" type="curve" smooth="yes"/>
      <point x="740.592803863" y="43.0"/>
      <point x="842.592803863" y="355.0"/>
    </contour>
  </outline>
</glyph>
